<svg xmlns="http://www.w3.org/2000/svg" xmlns:xlink="http://www.w3.org/1999/xlink" width="302.68" height="254.32" viewBox="0 0 302.68 254.32">
  <defs>
    <filter id="Path_10725" x="28.719" y="200.683" width="19" height="31.57" filterUnits="userSpaceOnUse">
      <feOffset input="SourceAlpha"/>
      <feGaussianBlur stdDeviation="3" result="blur"/>
      <feFlood flood-opacity="0.161"/>
      <feComposite operator="in" in2="blur"/>
      <feComposite in="SourceGraphic"/>
    </filter>
    <filter id="Path_10713" x="8.561" y="142.431" width="59.352" height="68.562" filterUnits="userSpaceOnUse">
      <feOffset input="SourceAlpha"/>
      <feGaussianBlur stdDeviation="3" result="blur-2"/>
      <feFlood flood-color="#efdb37"/>
      <feComposite operator="in" in2="blur-2"/>
      <feComposite in="SourceGraphic"/>
    </filter>
    <filter id="Path_10714" x="0.246" y="151.165" width="76.286" height="60.682" filterUnits="userSpaceOnUse">
      <feOffset input="SourceAlpha"/>
      <feGaussianBlur stdDeviation="3" result="blur-3"/>
      <feFlood flood-color="#efdb37"/>
      <feComposite operator="in" in2="blur-3"/>
      <feComposite in="SourceGraphic"/>
    </filter>
    <filter id="Path_10715" x="0.246" y="154.172" width="76.286" height="60.682" filterUnits="userSpaceOnUse">
      <feOffset dy="3" input="SourceAlpha"/>
      <feGaussianBlur stdDeviation="3" result="blur-4"/>
      <feFlood flood-color="#efdb37"/>
      <feComposite operator="in" in2="blur-4"/>
      <feComposite in="SourceGraphic"/>
    </filter>
    <filter id="Path_10711" x="0" y="142.97" width="76.78" height="76.468" filterUnits="userSpaceOnUse">
      <feOffset input="SourceAlpha"/>
      <feGaussianBlur stdDeviation="3" result="blur-5"/>
      <feFlood flood-color="#efdb37"/>
      <feComposite operator="in" in2="blur-5"/>
      <feComposite in="SourceGraphic"/>
    </filter>
    <filter id="Path_10716" x="8.562" y="155.025" width="59.35" height="67.638" filterUnits="userSpaceOnUse">
      <feOffset dy="3" input="SourceAlpha"/>
      <feGaussianBlur stdDeviation="3" result="blur-6"/>
      <feFlood flood-color="#efdb37"/>
      <feComposite operator="in" in2="blur-6"/>
      <feComposite in="SourceGraphic"/>
    </filter>
  </defs>
  <g id="イラスト" transform="translate(-40.62 -566.68)">
    <g id="Group_7102" data-name="Group 7102" transform="translate(0 6)">
      <text id="各発行体_事業者毎のID_プライベートネットワーク接続" data-name="各発行体・事業者毎のID
プライベートネットワーク接続" transform="translate(106 798)" fill="#5a5757" font-size="10" font-family="SourceHanSansJP-Regular, Source Han Sans JP" style="isolation: isolate"><tspan x="0" y="0">各発行体・事業者毎のID</tspan><tspan x="0" y="16">プライベートネットワーク接続</tspan></text>
      <path id="Path_10833" data-name="Path 10833" d="M-1613.456,316c-.079.065-.164.124-.237.2q-3.109,3.108-6.216,6.22c-.068.068-.129.143-.17.189l-3.622-3.616,1.323-1.312,2.179,2.229,5.335-5.351c.419.432.792.819,1.168,1.2a2.265,2.265,0,0,0,.24.187Z" transform="translate(1716.152 475.303)" fill="#efdb37"/>
      <g transform="matrix(1, 0, 0, 1, 40.62, 560.68)" filter="url(#Path_10725)">
        <path id="Path_10725-2" data-name="Path 10725" d="M-12706.16-21572.637v13.57" transform="translate(12744.38 21782.32)" fill="none" stroke="#efdb37" stroke-width="1" stroke-dasharray="2"/>
      </g>
      <g id="Group_6837" data-name="Group 6837" transform="translate(-493.924 373.176)">
        <path id="Path_10717" data-name="Path 10717" d="M580.571,411.825v1.635a.983.983,0,0,1,.172,0l10.673,2.136a.9.9,0,0,1-.176,1.774,1.3,1.3,0,0,1-.177-.019l-10.492-2.1v.992a.714.714,0,0,1,.143-.005l10.668,1.74a.894.894,0,0,1-.142,1.778,1.379,1.379,0,0,1-.144-.01l-10.53-1.719v.789a.553.553,0,0,1,.132,0l10.668,1.551a.894.894,0,0,1-.126,1.778.55.55,0,0,1-.129-.01L580.566,420.6v.9a.749.749,0,0,1,.108-.01l10.669,1.252a.9.9,0,0,1-.1,1.788c-.036,0-.07-.005-.1-.009l-10.57-1.239v12.417h11.94V414.211Zm9.946,15.521a.747.747,0,1,1,.747-.747.749.749,0,0,1-.747.747" transform="translate(-11.834 0)" fill="#efdb37"/>
        <path id="Path_10718" data-name="Path 10718" d="M565.4,424.457c.221-.01.438-.02.654-.02,2.814,0,5.844.963,5.844,3.07v7.412a2.072,2.072,0,0,1-.157.786h3.213V411.824L565.4,416.6Z" transform="translate(-6.814 0)" fill="#efdb37"/>
        <path id="Path_10719" data-name="Path 10719" d="M564.084,441.27c-2.56,0-4.632-.83-4.632-1.856v1.856c0,1.022,2.073,1.852,4.632,1.852s4.631-.83,4.631-1.852v-1.856c0,1.026-2.072,1.856-4.631,1.856" transform="translate(-4.846 -9.131)" fill="#efdb37"/>
        <path id="Path_10720" data-name="Path 10720" d="M564.084,445.427c-2.56,0-4.632-.83-4.632-1.851v1.851c0,1.022,2.073,1.852,4.632,1.852s4.631-.83,4.631-1.852v-1.851c0,1.022-2.072,1.851-4.631,1.851" transform="translate(-4.846 -10.508)" fill="#efdb37"/>
        <path id="Path_10721" data-name="Path 10721" d="M564.084,432.49c-2.56,0-4.632.83-4.632,1.857V436.2c0,1.028,2.073,1.852,4.632,1.852s4.631-.824,4.631-1.852v-1.851c0-1.027-2.072-1.857-4.631-1.857m0,3.246c-2.545,0-4.171-.825-4.171-1.39s1.626-1.39,4.171-1.39,4.169.821,4.169,1.39-1.626,1.39-4.169,1.39" transform="translate(-4.846 -6.839)" fill="#efdb37"/>
        <path id="Path_10722" data-name="Path 10722" d="M549.441,441.27c-2.559,0-4.632-.83-4.632-1.856v1.856c0,1.022,2.073,1.852,4.632,1.852s4.631-.83,4.631-1.852v-1.856c0,1.026-2.072,1.856-4.631,1.856" transform="translate(0 -9.131)" fill="#efdb37"/>
        <path id="Path_10723" data-name="Path 10723" d="M549.441,445.427c-2.559,0-4.632-.83-4.632-1.851v1.851c0,1.022,2.073,1.852,4.632,1.852s4.631-.83,4.631-1.852v-1.851c0,1.022-2.072,1.851-4.631,1.851" transform="translate(0 -10.508)" fill="#efdb37"/>
        <path id="Path_10724" data-name="Path 10724" d="M549.441,432.49c-2.559,0-4.632.83-4.632,1.857V436.2c0,1.028,2.073,1.852,4.632,1.852s4.631-.824,4.631-1.852v-1.851c0-1.027-2.072-1.857-4.631-1.857m0,3.246c-2.545,0-4.17-.825-4.17-1.39s1.625-1.39,4.17-1.39,4.169.821,4.169,1.39-1.625,1.39-4.169,1.39" transform="translate(0 -6.839)" fill="#efdb37"/>
      </g>
    </g>
    <g id="Group_6836" data-name="Group 6836" transform="translate(-502.817 378.119)">
      <g id="Group_6835" data-name="Group 6835" transform="translate(552.817 340.912)" opacity="0.8">
        <g id="Group_6834" data-name="Group 6834" opacity="0.754">
          <g id="Group_7148" data-name="Group 7148">
            <g transform="matrix(1, 0, 0, 1, -9.38, -152.35)" filter="url(#Path_10713)">
              <path id="Path_10713-2" data-name="Path 10713" d="M556.379,379.42l20.352-49.508,20.352,49.508" transform="translate(-538.49 -177.56)" fill="none" stroke="#efdb37" stroke-miterlimit="10" stroke-width="0.7"/>
            </g>
            <g transform="matrix(1, 0, 0, 1, -9.38, -152.35)" filter="url(#Path_10714)">
              <path id="Path_10714-2" data-name="Path 10714" d="M546.817,360.164l49.21-20.349-40.7,40.7,49.513-20.35" transform="translate(-537.44 -178.65)" fill="none" stroke="#efdb37" stroke-miterlimit="10" stroke-width="0.7"/>
            </g>
            <g transform="matrix(1, 0, 0, 1, -9.38, -152.35)" filter="url(#Path_10715)">
              <path id="Path_10715-2" data-name="Path 10715" d="M546.817,360.164l49.21,20.35-40.7-40.7,49.513,20.349" transform="translate(-537.44 -178.65)" fill="none" stroke="#efdb37" stroke-miterlimit="10" stroke-width="0.7"/>
            </g>
            <line id="Line_720" data-name="Line 720" y1="57.405" transform="translate(28.857 0)" fill="none" stroke="#efdb37" stroke-miterlimit="10" stroke-width="0.7"/>
          </g>
          <g id="Group_7147" data-name="Group 7147">
            <rect id="Rectangle_5670" data-name="Rectangle 5670" width="40.705" height="40.699" transform="translate(8.581 8.809)" fill="none" stroke="#efdb37" stroke-miterlimit="10" stroke-width="0.7"/>
            <g id="Group_7146" data-name="Group 7146">
              <g transform="matrix(1, 0, 0, 1, -9.38, -152.35)" filter="url(#Path_10711)">
                <path id="Path_10711-2" data-name="Path 10711" d="M575.674,329.912l-20.352,8.808-8.506,20.349,8.506,20.35,20.352,8.2,20.352-8.2,8.809-20.35-8.809-20.349Z" transform="translate(-537.44 -177.56)" fill="none" stroke="#efdb37" stroke-miterlimit="10" stroke-width="0.7"/>
              </g>
              <path id="Path_10712" data-name="Path 10712" d="M546.817,359.069l28.857,28.551,29.162-28.551-29.162-29.158Z" transform="translate(-546.817 -329.912)" fill="none" stroke="#efdb37" stroke-miterlimit="10" stroke-width="0.7"/>
              <line id="Line_719" data-name="Line 719" x2="58.019" transform="translate(0 29.158)" fill="none" stroke="#efdb37" stroke-miterlimit="10" stroke-width="0.7"/>
              <g transform="matrix(1, 0, 0, 1, -9.38, -152.35)" filter="url(#Path_10716)">
                <path id="Path_10716-2" data-name="Path 10716" d="M556.379,339.815l20.352,48.6,20.352-48.6" transform="translate(-538.49 -178.65)" fill="none" stroke="#efdb37" stroke-miterlimit="10" stroke-width="0.7"/>
              </g>
            </g>
          </g>
        </g>
      </g>
      <text id="Blockchain" transform="translate(581.019 335.961)" fill="#efdb37" font-size="15" font-family="BebasNeue-Regular, Bebas Neue"><tspan x="-28.11" y="0">Blockchain</tspan></text>
    </g>
    <g id="Group_7101" data-name="Group 7101" transform="translate(-20 6)">
      <text id="VW_ID認証" data-name="VW ID認証" transform="translate(145 770)" fill="#5a5757" font-size="10" font-family="SourceHanSansJP-Regular, Source Han Sans JP" style="isolation: isolate"><tspan x="0" y="0">VW ID認証</tspan></text>
      <path id="鍵_icon" d="M851.349,366.351c.157.24.159.384.016.539-.224.242-.326.258-.611.1l-1.273,1.272c.025.026.059.065.1.1q.518.519,1.037,1.038c.21.211.209.355,0,.568-.1.1-.19.194-.288.287a.32.32,0,0,1-.5,0q-.53-.528-1.059-1.058c-.04-.04-.082-.079-.117-.112l-.833.843c.02.022.053.06.089.1l1.017,1.017c.227.227.226.39,0,.62-.174.175-.347.351-.524.524a.354.354,0,0,1-.578,0q-1-1-1.993-1.993a.354.354,0,0,1,0-.568q1.823-1.824,3.648-3.645a.7.7,0,0,1,.149-.092c-.2-.329-.19-.425.034-.646.174-.171.31-.177.562-.018.033-.031.069-.062.1-.1.555-.555,1.108-1.111,1.666-1.662.085-.084.107-.141.034-.253a2.367,2.367,0,0,1-.424-1.172.9.9,0,0,1,.144-.552.179.179,0,0,0,.017-.142,4.974,4.974,0,0,1-.354-1.326,2.8,2.8,0,0,1,1.292-2.932,3.062,3.062,0,0,1,1.807-.352,5.018,5.018,0,0,1,1.942.585c.1.051.128,0,.176-.056a1.79,1.79,0,0,1,1.416-.655,1.921,1.921,0,0,1,1.909,1.573,1.825,1.825,0,0,1-.6,1.782.154.154,0,0,0-.045.227,4.686,4.686,0,0,1,.56,2.543,2.577,2.577,0,0,1-2.128,2.424,4.23,4.23,0,0,1-2.425-.3.229.229,0,0,0-.237.02,1,1,0,0,1-.883.056,8.066,8.066,0,0,1-.866-.4c-.059-.028-.1-.066-.164,0C852.56,365.143,851.956,365.744,851.349,366.351Zm7.718-7.808a1.013,1.013,0,0,0-1-1.017.974.974,0,0,0-.97.971,1.015,1.015,0,0,0,1,1.013A.962.962,0,0,0,859.066,358.543Z" transform="translate(-718.291 401.191)" fill="#edc93d"/>
    </g>
    <g id="Group_7100" data-name="Group 7100" transform="translate(0 6)">
      <text id="ウォレットアドレス_パスワード" data-name="ウォレットアドレス
パスワード" transform="translate(126 718.5)" fill="#5a5757" font-size="10" font-family="SourceHanSansJP-Regular, Source Han Sans JP" style="isolation: isolate"><tspan x="0" y="0">ウォレットアドレス</tspan><tspan x="0" y="16">パスワード</tspan></text>
      <path id="Path_10573" data-name="Path 10573" d="M-1613.456,316c-.079.065-.164.124-.237.2q-3.109,3.108-6.216,6.22c-.068.068-.129.143-.17.189l-3.622-3.616,1.323-1.312,2.179,2.229,5.335-5.351c.419.432.792.819,1.168,1.2a2.265,2.265,0,0,0,.24.187Z" transform="translate(1738.152 412.303)" fill="#efdb37"/>
      <path id="Path_10573-2" data-name="Path 10573" d="M-1613.456,316c-.079.065-.164.124-.237.2q-3.109,3.108-6.216,6.22c-.068.068-.129.143-.17.189l-3.622-3.616,1.323-1.312,2.179,2.229,5.335-5.351c.419.432.792.819,1.168,1.2a2.265,2.265,0,0,0,.24.187Z" transform="translate(1738.152 396.303)" fill="#efdb37"/>
    </g>
    <g id="人物01" transform="translate(-341.693 660.927)">
      <g id="paint" transform="translate(611.306 71.481)">
        <g id="Group_6984" data-name="Group 6984" transform="translate(5.509 43.192)">
          <path id="Path_10791" data-name="Path 10791" d="M680.736,279.985s.463-3.967.727-10.645.6-13.356-.462-18.182-8.662-6.942-8.662-6.942l-2.312-.463-.644-.149-.045-5.026-6.442.093v5l-.291.082-2.116.463s-7.027,1.542-8.214,6.719c-.34,1.48-2,14.807-1.649,17,.781,4.95,4.908-.037,5.092,4.589.266,6.678-.445,7.458-.445,7.458Z" transform="translate(-650.578 -238.578)" fill="#fff"/>
        </g>
        <g id="Group_6986" data-name="Group 6986" transform="translate(0)">
          <g id="Group_6985" data-name="Group 6985">
            <path id="Path_10792" data-name="Path 10792" d="M644.3,130.327a21.489,21.489,0,0,1-4.458-1.114c-4.9-2.6-8.866-7.235-8.651-15.272A28.876,28.876,0,0,1,646.429,89.2a20,20,0,0,1,15.994-1.689,17.591,17.591,0,0,1,5.307,3.347l.857,1.14s5.322,2.094,7.736,14.136c2.566,12.8-1.179,20.146-6.112,22.96-5.119,2.922-8.621,2.625-8.621,2.625l-3.286-.142-2.958-.315.144,1.752-6.319.054L649.06,131Z" transform="translate(-631.188 -86.559)" fill="#fff"/>
          </g>
        </g>
        <path id="Path_10793" data-name="Path 10793" d="M671.354,99a15.478,15.478,0,0,0-9.13-4.2c-7.595-.8-16.293,2.726-22.3,14.926s-1.311,23.725,8.33,25.6c0,0,2.313.386,3.7.5,1.565.126,2.2-.259,1.6-.568-1.135-.585-11.463-1.412-12.8-10.842-.955-6.732,2.974-13.562,2.974-13.562a87.068,87.068,0,0,0,10.675-2.437,136.431,136.431,0,0,0,12.9-4.638s7.954,9.059,6.738,19.1c-1.689,13.937-14.375,13.187-14.375,13.187s10.976,2.533,16.528-4.576C683.465,122.185,679.008,105.26,671.354,99Z" transform="translate(-635.533 -92.384)" fill="#916955"/>
        <path id="Path_10794" data-name="Path 10794" d="M660.325,300.788l5.87.066s.2-13.355.2-16.86.859-11.306.859-11.306a12.092,12.092,0,0,1-4.5-4.959s-2.812.463-3.9,4.182a34.453,34.453,0,0,0-1.187,11.88c.47,4.188,3.052,8.7,3.252,12.039A11.946,11.946,0,0,1,660.325,300.788Z" transform="translate(-650.048 -216.255)" fill="#eff5cc"/>
        <path id="Path_10795" data-name="Path 10795" d="M720.3,268.311s4,1.256,5.257,4.81c2.032,5.752-.248,27.967-.248,27.967h-9.273s.4-3.074.1-13.042a109.514,109.514,0,0,0-1.24-15.025A11.466,11.466,0,0,0,720.3,268.311Z" transform="translate(-691.114 -216.671)" fill="#eff5cc"/>
        <path id="Path_10796" data-name="Path 10796" d="M666.461,375.7c-.169.949.68,1.719,1.174,1.446.327-.182.647-.373.965-.565a1.1,1.1,0,0,0,1.43.565c.833-.331,1.57-.275,2.392-.632,1.009-.44.445-2.172-.484-2.139.122-.734-.733-1.18-1.382-.957a12.639,12.639,0,0,0-2.383,1.189.971.971,0,0,0-1.248-.388Z" transform="translate(-656.423 -291.872)" fill="#eff5cc"/>
        <path id="Path_10797" data-name="Path 10797" d="M727,373.73c.135-.815-.814-1.31-1.533-1.062a13.959,13.959,0,0,0-2.645,1.32,1.076,1.076,0,0,0-1.385-.431c-.677.322-1.191.845-1.835,1.214-1.188.679-.261,2.6.934,1.917.134-.076.26-.163.386-.25a.93.93,0,0,0,1.3.368c.363-.2.717-.414,1.07-.628a1.219,1.219,0,0,0,1.588.628c.924-.367,2.054-.305,2.968-.7C728.966,375.617,728.029,373.694,727,373.73Z" transform="translate(-694.084 -291.332)" fill="#eff5cc"/>
      </g>
      <g id="line" transform="translate(603.415 65.497)">
        <g id="Group_6990" data-name="Group 6990" transform="translate(20.129 28.036)">
          <g id="Group_6989" data-name="Group 6989">
            <path id="Path_10798" data-name="Path 10798" d="M677.344,167.025c-.085.82-.567,1.441-1.073,1.388s-.85-.761-.763-1.581.567-1.44,1.074-1.387S677.43,166.206,677.344,167.025Z" transform="translate(-675.144 -165.081)"/>
            <g id="Group_6988" data-name="Group 6988">
              <g id="Group_6987" data-name="Group 6987">
                <path id="Path_10799" data-name="Path 10799" d="M676.514,166.121l-.231-.059c-.105-.027-.128-.049-.1-.071s.043-.03.051-.047a.248.248,0,0,0,.016-.164c0-.01-.016-.019-.023-.028s-.03-.02-.023-.031c.067-.1.029-.186.022-.276a.862.862,0,0,0-.07-.178c-.007-.031.032-.082.006-.107-.095-.089-.115-.209-.2-.291-.024-.024-.045-.049-.07-.07a.071.071,0,0,0-.087-.027c-.03.012-.037-.026-.057-.046a.117.117,0,0,0-.153-.018.129.129,0,0,1-.129.013c-.024,0-.029.03-.048.033a.207.207,0,0,0-.148.091c-.034.066-.1.1-.122.178-.013.053-.048.089-.062.14a1.512,1.512,0,0,0-.032.188c0,.023-.023.038-.04.056a.079.079,0,0,0-.029.089c.012.039-.033.061-.051.092,0,0-.024.005-.018.012.071.076-.06.1-.08.155-.015.037-.071.069-.049.112a.231.231,0,0,1,.014.1c0,.024,0,.045-.047.066s-.041.047-.01.07.022.047.03.07a.308.308,0,0,0,.041.072.089.089,0,0,1,.012.025,1.506,1.506,0,0,0,.043.228c.008.028.051.049.035.08s-.033.062-.023.088a.115.115,0,0,0,.021.047c.039.038.057.077,0,.153-.01.013.006.015,0,.025a.638.638,0,0,0-.014.091c0,.01,0,.019.013.022.052.012.043.055.047.1a.121.121,0,0,0,.087.1,1.94,1.94,0,0,1,.283.14.239.239,0,0,0,.111.03c.02,0,.038-.023.055-.035s.054.025.084.026a.115.115,0,0,0,.135-.066.426.426,0,0,1,.111-.14c.028-.034.089-.042.1-.1.012-.1.1-.143.133-.234a1.4,1.4,0,0,0,.061-.213.392.392,0,0,0-.036-.128.027.027,0,0,1,0-.021c.017-.038-.016-.088-.029-.131a.17.17,0,0,1,.008-.133c.008-.025.062-.042.158-.054.072-.009.136-.022.2-.036.2.024.2.026.224.058a.175.175,0,0,1,.012.171,1.043,1.043,0,0,0-.018.109,1.414,1.414,0,0,0-.021.287l0,.005c-.009.076-.027.151-.043.228-.01.04-.014.084-.027.124a.19.19,0,0,1-.049.064c-.022.02-.073.022-.07.055,0,.106-.094.145-.138.224-.024.046-.038.116-.119.107-.045.134-.195.142-.295.232a.527.527,0,0,1-.36.119.833.833,0,0,1-.281-.088l-.227-.1a1.489,1.489,0,0,1-.221-.072.506.506,0,0,1-.146-.142,1.284,1.284,0,0,1-.2-.423,1.815,1.815,0,0,1-.055-.424c0-.053.02-.109-.021-.154-.059-.067,0-.145-.088-.213-.006-.005,0-.011,0-.016a1.7,1.7,0,0,1,.055-.607c.034-.1.1-.185.14-.279a1.2,1.2,0,0,0,.065-.164c.012-.079.027-.174.041-.263a.022.022,0,0,1,.008-.015c.071-.06.087-.154.152-.22.041-.041.034-.129.121-.131.047-.169.232-.21.372-.3.029-.017.046-.068.084-.069.07,0,.126-.068.2-.037.093.036.181.007.269.032a2,2,0,0,1,.528.263,1.2,1.2,0,0,1,.4.689.881.881,0,0,1,.044.08c0,.02-.024.047-.017.066.035.117.016.238.059.353a.358.358,0,0,1-.039.352c-.014.018,0,.039,0,.06C676.761,166.112,676.731,166.122,676.514,166.121Z" transform="translate(-674.262 -164.171)"/>
              </g>
            </g>
          </g>
        </g>
        <g id="Group_6994" data-name="Group 6994" transform="translate(35.411 29.419)">
          <g id="Group_6993" data-name="Group 6993">
            <path id="Path_10800" data-name="Path 10800" d="M731.133,171.894c-.087.82-.568,1.441-1.075,1.388s-.849-.761-.764-1.581.568-1.441,1.076-1.387S731.219,171.075,731.133,171.894Z" transform="translate(-728.932 -169.95)"/>
            <g id="Group_6992" data-name="Group 6992">
              <g id="Group_6991" data-name="Group 6991">
                <path id="Path_10801" data-name="Path 10801" d="M730.3,170.99l-.231-.059c-.105-.027-.128-.049-.1-.071s.043-.03.052-.047a.249.249,0,0,0,.015-.165c0-.01-.016-.019-.023-.028s-.031-.02-.022-.032c.067-.1.029-.186.022-.276a.887.887,0,0,0-.07-.178c-.008-.031.031-.082.006-.107-.095-.089-.116-.21-.2-.291-.023-.024-.045-.049-.069-.07a.072.072,0,0,0-.087-.027c-.03.012-.037-.026-.057-.046a.117.117,0,0,0-.152-.018.129.129,0,0,1-.129.014c-.024-.005-.029.03-.049.033a.2.2,0,0,0-.148.091c-.034.066-.1.1-.122.178-.013.053-.048.089-.062.14a1.433,1.433,0,0,0-.032.188c0,.023-.023.038-.04.055a.08.08,0,0,0-.029.089c.012.039-.033.061-.05.092,0,0-.024,0-.018.012.071.076-.06.1-.08.155-.015.037-.071.069-.049.112a.221.221,0,0,1,.014.1c0,.024,0,.045-.047.066s-.041.047-.01.07.022.047.03.07a.291.291,0,0,0,.041.072.092.092,0,0,1,.013.025,1.488,1.488,0,0,0,.043.228c.008.028.052.049.035.08s-.032.062-.023.088a.13.13,0,0,0,.021.047c.039.038.057.077,0,.153-.01.012.007.016.005.025a.7.7,0,0,0-.015.091c0,.01,0,.02.013.022.052.012.042.055.047.1a.122.122,0,0,0,.087.1,1.885,1.885,0,0,1,.283.14.245.245,0,0,0,.112.03c.02,0,.037-.023.055-.035s.054.024.084.026a.115.115,0,0,0,.135-.066.432.432,0,0,1,.111-.14c.028-.034.089-.042.095-.1.013-.1.105-.144.134-.234a1.345,1.345,0,0,0,.061-.213.408.408,0,0,0-.036-.129.03.03,0,0,1,0-.021c.018-.037-.015-.088-.028-.13a.171.171,0,0,1,.009-.133c.008-.025.062-.042.158-.054.072-.009.136-.022.2-.036.2.024.2.026.224.058a.175.175,0,0,1,.011.172c-.013.035-.008.073-.018.109a1.505,1.505,0,0,0-.021.287v.005c-.009.076-.027.151-.044.228-.01.04-.015.084-.027.124a.19.19,0,0,1-.048.065c-.022.021-.073.022-.07.055,0,.106-.094.145-.139.224-.024.046-.038.116-.118.107-.045.134-.2.142-.295.232a.53.53,0,0,1-.36.119.823.823,0,0,1-.281-.088l-.227-.1a1.512,1.512,0,0,1-.221-.072.508.508,0,0,1-.146-.142,1.307,1.307,0,0,1-.2-.423,1.779,1.779,0,0,1-.055-.424c0-.053.019-.109-.022-.154-.059-.067,0-.145-.088-.213-.006,0,0-.011,0-.016a1.69,1.69,0,0,1,.055-.607c.033-.1.1-.185.139-.279a1.149,1.149,0,0,0,.066-.164c.012-.079.027-.174.041-.263a.021.021,0,0,1,.008-.015c.071-.06.087-.154.152-.22.041-.041.035-.129.121-.131.047-.169.233-.209.372-.3.03-.017.047-.068.085-.07.07,0,.125-.068.2-.037.093.036.181.007.269.032a2,2,0,0,1,.529.263,1.2,1.2,0,0,1,.4.688c.011.028.035.051.043.08s-.023.047-.017.066c.035.117.016.238.06.353a.36.36,0,0,1-.039.351c-.014.019,0,.04,0,.06C730.55,170.981,730.52,170.991,730.3,170.99Z" transform="translate(-728.049 -169.04)"/>
              </g>
            </g>
          </g>
        </g>
        <g id="Group_6998" data-name="Group 6998" transform="translate(25.886 30.888)">
          <g id="Group_6997" data-name="Group 6997">
            <g id="Group_6996" data-name="Group 6996">
              <g id="Group_6995" data-name="Group 6995">
                <path id="Path_10802" data-name="Path 10802" d="M698.034,175.055a5.222,5.222,0,0,1-.539.467,2.472,2.472,0,0,1-.336.138l-.359.19c-.221.127-.472.211-.7.329-.125.059-.171.141-.255.192a.426.426,0,0,1-.062.029.129.129,0,0,1-.03.008.09.09,0,0,0-.049.023c-.021.025,0,.069.039.09a.465.465,0,0,0,.078.029c.008,0,.012.006.013.012a.031.031,0,0,1,0,.013s0,0,0,.011l.018.03c.062.107.189.159.29.238l.555.432c.17.134.341.274.509.428.017.014.022.042.037.059a1.747,1.747,0,0,0,.17.186.288.288,0,0,1,.094.346.048.048,0,0,0,.012.05c.072.083-.1.31-.208.462a1.124,1.124,0,0,1-.143.115.23.23,0,0,1-.068,0,.874.874,0,0,1-.149-.1c-.05-.054-.076-.13-.136-.18-.157-.134-.238-.362-.465-.441-.132-.045-.2-.167-.294-.255a2.774,2.774,0,0,0-.322-.292c-.128-.085-.3-.129-.429-.222a.713.713,0,0,1-.138-.139l-.179-.218a3.5,3.5,0,0,1-.438-.654.442.442,0,0,1,.066-.437,1.2,1.2,0,0,1,.442-.324c.127-.063.206-.188.34-.266a1.6,1.6,0,0,1,.21-.1l.138-.067.26-.127c.086-.047.172-.1.261-.143s.226-.066.329-.12a2.241,2.241,0,0,0,.352-.219,2.705,2.705,0,0,0,.294-.234.712.712,0,0,0,.14-.155c.032-.05.109-.032.325.127a.591.591,0,0,1,.07.055,4.4,4.4,0,0,1,.341.383c.054.077.03.113.042.164,0,0,0,.005-.006.007l-.12.093Z" transform="translate(-694.524 -174.209)"/>
              </g>
            </g>
          </g>
        </g>
        <g id="Group_7002" data-name="Group 7002" transform="translate(37.176 23.075)">
          <g id="Group_7001" data-name="Group 7001">
            <g id="Group_7000" data-name="Group 7000">
              <g id="Group_6999" data-name="Group 6999">
                <path id="Path_10803" data-name="Path 10803" d="M734.377,148.021a3.543,3.543,0,0,1,.479-.611,1.912,1.912,0,0,1,.346-.208c.134-.079.257-.169.4-.239a2.1,2.1,0,0,1,.906-.233,2.021,2.021,0,0,1,.6.011,1.233,1.233,0,0,1,.52.3,2.886,2.886,0,0,1,.366.384,1.245,1.245,0,0,1,.318.684,2.946,2.946,0,0,0,.128.451,6.326,6.326,0,0,1,.129.781c.026.231.04.462.045.691,0,.023-.016.045-.017.067a1.482,1.482,0,0,0-.013.246.274.274,0,0,1-.17.3.043.043,0,0,0-.024.042c0,.1-.28.153-.455.215a1.082,1.082,0,0,1-.184.006c-.018-.014-.047-.031-.052-.045a.782.782,0,0,1-.047-.2c0-.082.031-.163.024-.246-.019-.224.092-.448-.007-.671a.983.983,0,0,1-.022-.392,1.882,1.882,0,0,0-.032-.423,3.663,3.663,0,0,0-.194-.4c-.042-.1-.033-.219-.069-.318a.389.389,0,0,0-.255-.293c-.083-.018-.1-.072-.126-.116s-.045-.136-.106-.149-.158.048-.21.063a.147.147,0,0,1-.081.007l-.082,0a1.087,1.087,0,0,0-.385.125,2.265,2.265,0,0,0-.286.108,1.507,1.507,0,0,0-.3.247,2.083,2.083,0,0,0-.237.279.69.69,0,0,0-.1.18c-.018.054-.1.056-.345-.045a.693.693,0,0,1-.082-.035,4.076,4.076,0,0,1-.424-.289c-.071-.06-.056-.1-.078-.154,0,0,0-.006,0-.009.033-.044.068-.086.1-.127Z" transform="translate(-734.261 -146.712)"/>
              </g>
            </g>
          </g>
        </g>
        <g id="Group_7006" data-name="Group 7006" transform="translate(7.509 5.49)">
          <g id="Group_7005" data-name="Group 7005">
            <g id="Group_7004" data-name="Group 7004">
              <g id="Group_7003" data-name="Group 7003">
                <path id="Path_10804" data-name="Path 10804" d="M644.426,130.1a18,18,0,0,1-7.639-2.6,13.882,13.882,0,0,1-3.007-2.655c-.261-.285-.491-.6-.731-.9-.221-.317-.456-.623-.653-.954a14.994,14.994,0,0,1-1.088-2.033,16.839,16.839,0,0,1-1.214-4.178,20.022,20.022,0,0,1-.218-4.322l.065-1.308.129-1.3c.031-.436.105-.867.175-1.3l.105-.648a6.479,6.479,0,0,1,.126-.644l.288-1.2.074-.3.092-.3.184-.592.185-.591.093-.3.109-.29.437-1.159c.124-.363.3-.705.447-1.058l.467-1.05.526-1.022c.174-.341.343-.686.547-1.01a25.1,25.1,0,0,1,4.431-5.794c.287-.284.6-.546.89-.824s.583-.565.9-.819l.941-.773.471-.386.5-.351a29.911,29.911,0,0,1,3.633-2.239,21.1,21.1,0,0,1,3.988-1.589,19.466,19.466,0,0,1,3.787-.71,19.861,19.861,0,0,1,3.857.021c.251.03.5.078.753.111a22.991,22.991,0,0,1,2.71.6c.291.079.561.17.831.263a7.826,7.826,0,0,1,.834.317,8.073,8.073,0,0,1,1.512.863c.13.089.287.174.428.263a6.943,6.943,0,0,1,.666.451,7.47,7.47,0,0,1,.541.515,13.484,13.484,0,0,1,.917,1.093.882.882,0,0,1,.126.346c-.135-.089-.275-.167-.4-.266a10.071,10.071,0,0,0-.9-.672c-.315-.206-.618-.428-.948-.609a13.837,13.837,0,0,0-2.585-1.282,21.887,21.887,0,0,0-3.818-.992,16.057,16.057,0,0,0-3.943-.135,23.763,23.763,0,0,0-4.563.833A20.137,20.137,0,0,0,644.83,88.7c-.38.234-.768.454-1.135.7l-1.079.786c-.177.133-.362.257-.534.4l-.509.43-1.021.855c-.511.493-1.051.955-1.556,1.454l-.738.769a9.863,9.863,0,0,0-.714.792l-.881,1.081c-.281.37-.537.759-.8,1.139-.13.192-.267.38-.389.577l-.349.6-.342.606a6.34,6.34,0,0,0-.318.617c-.222.485-.468.964-.717,1.444-.226.491-.452.985-.677,1.475-.259.607-.494,1.224-.746,1.835-.208.626-.426,1.251-.6,1.888-.139.621-.288,1.239-.38,1.867l-.131.942c-.047.313-.093.627-.117.943-.057.64-.157,1.276-.175,1.919l-.057.963c-.018.321-.01.638-.017.957a17.057,17.057,0,0,0,1.653,7.311,14.029,14.029,0,0,0,2.338,3.477,13.765,13.765,0,0,0,4.067,2.952,16.875,16.875,0,0,0,4.376,1.4c.422.089.855.131,1.282.195.432.034.861.091,1.294.1a3.414,3.414,0,0,1,1.7.369c.042.028.113.067.094.09a1.528,1.528,0,0,1-.509.506,3.511,3.511,0,0,1-.949.12.772.772,0,0,1-.1,0c-.555-.025-1.109-.092-1.663-.153Z" transform="translate(-629.844 -84.821)"/>
              </g>
            </g>
          </g>
        </g>
        <g id="Group_7010" data-name="Group 7010" transform="translate(12.308 13.05)">
          <g id="Group_7009" data-name="Group 7009">
            <g id="Group_7008" data-name="Group 7008">
              <g id="Group_7007" data-name="Group 7007">
                <path id="Path_10805" data-name="Path 10805" d="M679.245,112.891l-.7.555-.725.513-.363.255-.374.235-.751.464c-.493.307-1.038.512-1.548.781-.586.316-1.194.584-1.79.875l-.854.4-.875.368c-.581.252-1.175.456-1.758.7-.718.259-1.407.6-2.128.851-.339.122-.681.235-1.023.348l-1.031.322-1.9.62q-.753.258-1.516.478c-.509.147-1.02.288-1.542.391-.689.14-1.36.367-2.047.53-.6.148-1.2.3-1.805.43s-1.207.275-1.816.389c-.544.107-1.086.223-1.636.309s-1.094.193-1.65.258c-.109.015-.22.013-.329.025-.4.047-.8.084-1.2.121a7.024,7.024,0,0,1-.768.048,2.869,2.869,0,0,1-.764-.117.75.75,0,0,0-.221-.017,1.292,1.292,0,0,1-.677-.163c-.207-.1-.4-.228-.594-.326-.061-.03-.082-.126-.119-.191a1.236,1.236,0,0,1,.214-.041l.493,0c.164,0,.326.005.493-.008.212-.008.425-.007.638-.007a4.419,4.419,0,0,0,.639-.027c.579-.062,1.161-.082,1.742-.154.291-.031.582-.063.871-.1s.577-.108.863-.178c.668-.155,1.358-.243,2.037-.368.744-.133,1.488-.28,2.224-.451.766-.2,1.519-.448,2.279-.666.608-.175,1.234-.282,1.843-.453a16.192,16.192,0,0,0,2.358-.774,12.623,12.623,0,0,1,1.373-.443c.564-.168,1.147-.278,1.7-.481.532-.193,1.041-.448,1.561-.669s1.073-.4,1.6-.617l.791-.312.774-.337c.521-.213,1.025-.481,1.539-.72.286-.137.578-.263.87-.388s.572-.272.855-.416l1-.531.969-.588.437-.269.421-.29c.277-.2.568-.38.828-.595a9.029,9.029,0,0,0,.864-.731.811.811,0,0,1,.751-.278c.033,0,.083.008.1.029a1.274,1.274,0,0,1,.215.516c.007.119-.133.278-.213.407a.151.151,0,0,1-.033.031c-.194.159-.382.329-.58.476Z" transform="translate(-646.734 -111.427)"/>
              </g>
            </g>
          </g>
        </g>
        <g id="Group_7014" data-name="Group 7014" transform="translate(14.063 8.835)">
          <g id="Group_7013" data-name="Group 7013">
            <g id="Group_7012" data-name="Group 7012">
              <g id="Group_7011" data-name="Group 7011">
                <path id="Path_10806" data-name="Path 10806" d="M678.306,97.913c-.739.626-1.485,1.241-2.258,1.821-.38.287-.8.521-1.192.788l-1.358.931c-.862.584-1.745,1.138-2.618,1.705-.532.342-1.031.737-1.564,1.079-.5.322-1.029.609-1.547.909l-1.437.842a17.484,17.484,0,0,1-2.352,1.217c-.544.218-1.059.508-1.6.746-.472.207-.944.418-1.425.606s-.962.379-1.448.555c-.87.318-1.756.594-2.651.843-.087.027-.18.034-.27.053-.326.073-.654.137-.976.225a3.006,3.006,0,0,1-1.265.094.605.605,0,0,0-.182.011,2.368,2.368,0,0,1-1.116-.275c-.056-.018-.094-.108-.141-.164a.884.884,0,0,1,.167-.081c.271-.066.54-.137.812-.184.35-.056.7-.11,1.051-.185l1.417-.306a9.8,9.8,0,0,0,1.39-.42c.522-.227,1.086-.344,1.623-.54.592-.2,1.183-.407,1.758-.65.6-.272,1.167-.591,1.749-.887.47-.225.955-.423,1.427-.648a10.78,10.78,0,0,0,1.77-1.035,8.529,8.529,0,0,1,1.031-.6c.431-.226.879-.424,1.292-.68.4-.247.747-.572,1.134-.836s.8-.52,1.192-.782c.795-.511,1.572-1.05,2.355-1.579.437-.3.9-.563,1.333-.862.518-.36,1.026-.736,1.528-1.119.456-.345.9-.7,1.343-1.065.245-.2.49-.411.721-.632a.61.61,0,0,1,.68-.173c.03.01.075.021.086.043a1.766,1.766,0,0,1,.2.5c.013.111-.1.226-.162.336-.005.01-.018.017-.026.024l-.469.378Z" transform="translate(-652.91 -96.594)"/>
              </g>
            </g>
          </g>
        </g>
        <g id="Group_7018" data-name="Group 7018" transform="translate(13.578 7.515)">
          <g id="Group_7017" data-name="Group 7017">
            <g id="Group_7016" data-name="Group 7016">
              <g id="Group_7015" data-name="Group 7015">
                <path id="Path_10807" data-name="Path 10807" d="M666.523,93.028c-.417.521-.841,1.033-1.287,1.525-.222.241-.49.44-.722.669l-.8.8c-.25.256-.514.5-.771.747l-.772.745c-.313.3-.572.658-.881.965-.293.288-.611.55-.909.832-.277.262-.564.513-.834.784a9.069,9.069,0,0,1-1.384,1.18,4.782,4.782,0,0,0-.473.376c-.155.13-.31.259-.47.384l-.841.65c-.282.215-.578.411-.867.618l-.782.546-.81.506c-.053.034-.115.052-.169.084-.2.114-.4.223-.591.348a1.546,1.546,0,0,1-.836.27.248.248,0,0,0-.119.039c-.244.138-.559,0-.841-.045-.044-.007-.1-.082-.153-.126a.505.505,0,0,1,.081-.107,5.742,5.742,0,0,1,.475-.324c.211-.121.441-.212.65-.336l.869-.485a5.655,5.655,0,0,0,.834-.546,10.2,10.2,0,0,1,.973-.656,10.882,10.882,0,0,0,1.057-.73c.347-.285.663-.609,1-.9.268-.237.572-.432.852-.655a5.213,5.213,0,0,0,1.006-.983,3.386,3.386,0,0,1,.6-.554c.253-.217.539-.4.778-.63s.4-.505.615-.748.455-.465.691-.69l1.371-1.374c.253-.257.547-.478.8-.736.306-.305.6-.621.891-.943.266-.288.518-.586.77-.885.138-.169.275-.34.4-.52a.4.4,0,0,1,.515-.141.207.207,0,0,1,.086.035,2.185,2.185,0,0,1,.329.412c.045.091-.015.184-.031.276,0,.009-.009.014-.014.021l-.274.313Z" transform="translate(-651.205 -91.946)"/>
              </g>
            </g>
          </g>
        </g>
        <g id="Group_7022" data-name="Group 7022" transform="translate(32.756 11.204)">
          <g id="Group_7021" data-name="Group 7021">
            <g id="Group_7020" data-name="Group 7020">
              <g id="Group_7019" data-name="Group 7019">
                <path id="Path_10808" data-name="Path 10808" d="M733.38,106.084a18.27,18.27,0,0,1,3.295,4.594,22.909,22.909,0,0,1,1.064,2.547l.282.742.245.754c.161.5.341,1,.466,1.512l.389,1.45.312,1.466.157.732.119.74.246,1.478c.143,1.2.365,2.4.405,3.627.015.287.033.575.04.863l-.023.865-.025.865c0,.289-.048.576-.068.864a26.608,26.608,0,0,1-.442,3.19l-.291,1.252c-.12.412-.262.818-.4,1.227l-.1.306c-.038.1-.084.2-.127.3l-.263.591c-.092.2-.171.4-.276.585l-.325.562a18.555,18.555,0,0,1-1.957,2.835,14.223,14.223,0,0,1-2.245,2.046,12.959,12.959,0,0,1-1.277.835c-.443.245-.9.461-1.347.688a20.682,20.682,0,0,1-5.145,1.536c-.173.028-.349.039-.524.064-.317.053-.637.074-.956.107s-.638.061-.957.084a7.985,7.985,0,0,1-2.412-.1,1.857,1.857,0,0,0-.346-.034,5.512,5.512,0,0,1-1.993-.593c-.1-.039-.136-.139-.2-.213a3.264,3.264,0,0,1,.334-.01c.525.04,1.056.045,1.583.068.678.018,1.358.063,2.036.024a20.313,20.313,0,0,0,5.454-.805c.517-.148,1.018-.349,1.536-.5.254-.091.5-.2.756-.292a6.956,6.956,0,0,0,.745-.318,11.905,11.905,0,0,0,2.969-1.875c.224-.21.463-.4.667-.633l.611-.686c.2-.235.368-.49.554-.731.09-.123.187-.241.273-.367l.246-.387.405-.61.364-.637c.118-.214.25-.422.358-.642l.3-.671a15.006,15.006,0,0,0,.663-1.808c.1-.306.149-.626.22-.939a8.594,8.594,0,0,0,.164-.949c.062-.739.243-1.474.3-2.224l.081-.684c.014-.114.032-.228.042-.342l.02-.344c.026-.459.049-.919.055-1.379,0-.444-.064-.886-.105-1.327s-.083-.881-.155-1.321-.114-.893-.163-1.34l-.037-.336-.055-.334-.112-.667-.224-1.327-.293-1.314c-.173-.883-.446-1.737-.669-2.605-.3-.952-.558-1.921-.934-2.849a22.789,22.789,0,0,0-1.55-3.216,17.614,17.614,0,0,0-1.871-2.611,10.173,10.173,0,0,0-1.282-1.233,1.914,1.914,0,0,1-.754-.934c-.01-.036-.034-.094-.013-.109a1.127,1.127,0,0,1,.576-.249.756.756,0,0,1,.306.1c.113.061.233.135.341.19a.388.388,0,0,1,.059.044l.454.4c.147.135.284.278.427.417Z" transform="translate(-718.705 -104.929)"/>
              </g>
            </g>
          </g>
        </g>
        <g id="Group_7026" data-name="Group 7026" transform="translate(43.693 15.864)">
          <g id="Group_7025" data-name="Group 7025">
            <g id="Group_7024" data-name="Group 7024">
              <g id="Group_7023" data-name="Group 7023">
                <path id="Path_10809" data-name="Path 10809" d="M760.15,122.249a27.069,27.069,0,0,1,1.62,3.03c.244.509.393,1.057.6,1.581.228.607.433,1.223.647,1.835.172.592.361,1.177.514,1.773.137.6.307,1.191.43,1.793.138.733.388,1.448.484,2.192.055.349.1.7.147,1.051s.051.706.085,1.058l.083.982c.038.327.024.656.043.984.013.521.053,1.045.029,1.567s-.077,1.043-.143,1.563c-.024.172-.033.344-.058.518l-.073.525a9.293,9.293,0,0,1-.178,1.048,13.954,13.954,0,0,1-1.286,3.5A14.442,14.442,0,0,1,761.2,150c-.071.083-.155.156-.229.236-.282.284-.564.566-.853.841a4.2,4.2,0,0,1-.576.5,2.583,2.583,0,0,1-.664.358.712.712,0,0,0-.182.115,2.669,2.669,0,0,1-1.277.361c-.066.012-.143-.049-.215-.077a1.175,1.175,0,0,1,.141-.16c.258-.2.5-.408.76-.6.326-.254.67-.487.974-.769a11.55,11.55,0,0,0,2.265-2.48c.161-.287.359-.549.527-.833l.267-.416.239-.433c.18-.313.32-.645.476-.971s.267-.671.375-1.014a9.145,9.145,0,0,0,.243-1.1l.088-.556q.032-.28.063-.559c.019-.149.041-.3.065-.444l.044-.454c.031-.3.065-.605.089-.909a10.365,10.365,0,0,0-.041-2.383c-.043-.454-.074-.92-.092-1.382-.014-.282-.016-.565-.02-.849a6.149,6.149,0,0,0-.08-.844c-.042-.269-.1-.535-.167-.8l-.094-.4c-.038-.131-.075-.262-.107-.395-.139-.534-.218-1.081-.353-1.616s-.265-1.064-.418-1.591-.316-1.051-.49-1.571c-.21-.576-.347-1.18-.581-1.75-.136-.341-.261-.688-.414-1.022l-.459-1-.45-.891c-.156-.294-.322-.582-.483-.873-.192-.317-.38-.641-.6-.94a.767.767,0,0,1-.141-.782c.012-.03.026-.078.049-.085a1.506,1.506,0,0,1,.543-.117c.118.011.239.165.349.259a.151.151,0,0,1,.025.036c.126.2.251.408.367.615Z" transform="translate(-757.199 -121.33)"/>
              </g>
            </g>
          </g>
        </g>
        <g id="Group_7029" data-name="Group 7029" transform="translate(32.886 54.155)">
          <g id="Group_7028" data-name="Group 7028">
            <g id="Group_7027" data-name="Group 7027">
              <path id="Path_10810" data-name="Path 10810" d="M729.4,290.8l.1-1.031c.027-.345.041-.692.063-1.038l.131-2.076c.048-.682.153-1.358.215-2.04.073-.786.128-1.574.187-2.362.1-1.5.187-3,.243-4.5.038-.912-.013-1.824,0-2.735l.031-2.576c0-.8-.044-1.589-.08-2.381-.1-1.252-.2-2.493-.3-3.75-.014-.207-.033-.414-.055-.62s-.074-.407-.113-.609q-.121-.608-.242-1.215a6.336,6.336,0,0,0-2.2-3.347,14.45,14.45,0,0,0-3.21-2.028c-.113-.054-.22-.123-.335-.177a13.731,13.731,0,0,0-1.275-.544c-.279-.1-.555-.2-.823-.308-.134-.055-.267-.114-.393-.175a.779.779,0,0,0-.163-.075c-.069-.03-.138-.061-.206-.094a1.01,1.01,0,0,0-.25-.071,4.433,4.433,0,0,1-1.417-.729c-.07-.041-.091-.141-.135-.214a1.667,1.667,0,0,1,.263-.005c.4.053.807.1,1.208.176.256.047.512.1.766.159a1.712,1.712,0,0,1,.217.056l.191.061.379.122a25.683,25.683,0,0,1,3.924,1.8A9.814,9.814,0,0,1,728.175,260a9.537,9.537,0,0,1,.961,1.047,9.024,9.024,0,0,1,.781,1.2,7.171,7.171,0,0,1,.563,1.411c.109.472.218.946.313,1.423a8.5,8.5,0,0,1,.151,1.153c.034.386.065.772.107,1.157.049.5.063,1.007.11,1.51s.1,1,.155,1.506a14.337,14.337,0,0,1,.059,1.759c-.016.717-.083,1.432-.078,2.146,0,.688.066,1.374.073,2.064s-.031,1.4-.057,2.092l-.089,2.076c-.033.691-.06,1.382-.118,2.074-.058.773-.162,1.543-.229,2.315-.079.921-.144,1.844-.21,2.767-.067.835-.1,1.67-.183,2.506-.045.468-.088.937-.117,1.406a1.025,1.025,0,0,1-.405.879c-.03.019-.072.052-.094.04a1.653,1.653,0,0,1-.486-.324c-.083-.1-.07-.33-.1-.5a.205.205,0,0,1,0-.052l.1-.851Z" transform="translate(-719.162 -256.1)"/>
            </g>
          </g>
        </g>
        <g id="Group_7032" data-name="Group 7032" transform="translate(16.609 64.905)">
          <g id="Group_7031" data-name="Group 7031" transform="translate(0 0)">
            <g id="Group_7030" data-name="Group 7030">
              <path id="Path_10811" data-name="Path 10811" d="M663.071,318.2c.05-.432.114-.854.18-1.26s.134-.811.163-1.17a4.924,4.924,0,0,0,.023-.569c0-.2.009-.4,0-.6-.011-.462-.039-.925-.063-1.389-.05-.883-.116-1.783-.2-2.671-.055-.541-.176-1.074-.246-1.614-.065-.509-.094-1.022-.152-1.532-.054-.473-.114-.946-.187-1.417a18.877,18.877,0,0,1-.256-2.254c-.02-.5-.115-1-.165-1.5l-.27-2.651c-.012-.407-.036-.822-.027-1.228s.016-.815.054-1.216c.005-.079.028-.157.037-.236.026-.29.074-.575.1-.863a2.195,2.195,0,0,1,.3-1.056.4.4,0,0,0,.046-.151c.051-.349.37-.569.594-.826.035-.04.132-.043.2-.063a.64.64,0,0,1,.026.158c-.02.24-.033.48-.065.718-.048.3-.114.6-.15.91-.034.416-.115.827-.155,1.242-.023.207-.046.415-.058.623s0,.417.013.625c.012.244.016.486.018.729s-.022.484.005.733c.043.54.065,1.082.13,1.62.07.563.195,1.119.269,1.681.062.451.07.908.115,1.361a10.244,10.244,0,0,0,.285,1.765,5.274,5.274,0,0,1,.132,1.031c.031.423.013.851.065,1.272.051.405.18.8.244,1.206s.1.824.137,1.237c.072.826.169,1.63.208,2.476.025.469,0,.939.019,1.406q.018.418.037.836c-.007.149-.02.307-.033.455l-.061.428c-.085.5-.176.99-.248,1.471a5.717,5.717,0,0,0-.066.8.514.514,0,0,1-.328.512c-.028.015-.067.039-.09.035a1.581,1.581,0,0,1-.515-.144c-.092-.058-.1-.215-.147-.33a.092.092,0,0,1,0-.034c.021-.184.036-.372.063-.55Z" transform="translate(-661.873 -293.935)"/>
            </g>
          </g>
        </g>
        <g id="Group_7035" data-name="Group 7035" transform="translate(39.262 65.073)">
          <g id="Group_7034" data-name="Group 7034" transform="translate(0 0)">
            <g id="Group_7033" data-name="Group 7033">
              <path id="Path_10812" data-name="Path 10812" d="M741.91,318.88l-.158-1.205c-.054-.418-.123-.808-.141-1.274-.007-.111-.01-.221-.01-.332a2.228,2.228,0,0,1,.037-.312c.032-.2.065-.41.088-.615.053-.473.089-.945.129-1.418.074-.9.188-1.774.252-2.665.04-.539.013-1.083.039-1.624.024-.51.083-1.018.118-1.527.03-.472.055-.945.066-1.418a18.471,18.471,0,0,1,.146-2.249c.071-.494.062-1,.087-1.493l.139-2.614c.015-.386,0-.747,0-1.121-.038-.375-.046-.748-.1-1.123-.011-.073,0-.149-.011-.224l-.042-.406c-.019-.135-.043-.27-.072-.4a2.44,2.44,0,0,1-.048-1.047.317.317,0,0,0-.012-.151c-.086-.326.12-.646.2-.977.013-.051.1-.1.147-.152a.662.662,0,0,1,.1.135,6.055,6.055,0,0,1,.243.694c.084.3.113.617.191.921.184.835.2,1.688.334,2.54a3.518,3.518,0,0,1,.036.759c-.005.256-.02.511-.044.755-.04.541-.1,1.081-.121,1.623-.02.567.023,1.138,0,1.7-.018.452-.091.9-.127,1.353a10.072,10.072,0,0,0-.031,1.778,5.2,5.2,0,0,1-.053,1.033c-.044.42-.137.836-.158,1.256s.039.815.031,1.221-.046.822-.08,1.233q-.1,1.218-.2,2.437c-.038.449-.122.9-.17,1.347l-.04.4a2.253,2.253,0,0,0-.019.4c.019.257.016.495.053.769l.178,1.474.053.419c.012.143.027.286.044.428a.5.5,0,0,1-.282.569c-.027.014-.064.037-.087.031a2.506,2.506,0,0,1-.525-.142c-.1-.049-.114-.178-.165-.27-.005-.009,0-.019,0-.029l-.016-.484Z" transform="translate(-741.601 -294.529)"/>
            </g>
          </g>
        </g>
        <g id="Group_7038" data-name="Group 7038" transform="translate(31.571 18.43)">
          <g id="Group_7037" data-name="Group 7037">
            <g id="Group_7036" data-name="Group 7036">
              <path id="Path_10813" data-name="Path 10813" d="M714.563,164.512l-.02-2.213-.006-.832,0-.541a4.943,4.943,0,0,1,.527-.057l.834-.069c.179-.014.358-.025.535-.053.349-.049.7-.072,1.054-.115s.7-.1,1.049-.162c.4-.1.793-.192,1.187-.3.385-.134.775-.254,1.156-.4a12.311,12.311,0,0,0,3.939-2.393c.164-.167.323-.34.482-.512l.236-.26.117-.13.1-.143.408-.57.206-.282c.065-.1.119-.2.18-.3a13.539,13.539,0,0,0,1.208-2.348c.131-.389.272-.775.392-1.167l.267-1.206a9.15,9.15,0,0,0,.142-.971l.125-.973c.035-.658.081-1.314.149-1.973.022-.436,0-.875-.011-1.312l-.025-.657c-.018-.218-.049-.435-.071-.653l-.12-1.143c-.058-.378-.135-.754-.2-1.131l-.1-.565c-.037-.188-.094-.371-.139-.557l-.29-1.11a24.653,24.653,0,0,0-1.532-3.8c-.056-.122-.11-.246-.172-.365a13.749,13.749,0,0,0-.728-1.279c-.171-.264-.334-.529-.5-.791a7.663,7.663,0,0,1-.42-.828,1.074,1.074,0,0,0-.146-.226,7.241,7.241,0,0,1-.715-1.5c-.038-.078,0-.173-.006-.264a1.58,1.58,0,0,1,.238.162c.165.149.316.307.473.462s.3.324.439.491c.176.22.34.448.507.674s.314.466.478.694a28.324,28.324,0,0,1,2.152,4.029,8.162,8.162,0,0,1,.5,1.25c.128.432.28.857.386,1.294l.344,1.435c.081.485.163.969.257,1.452.057.251.083.507.119.761l.109.764c.032.255.084.51.1.767l.038.772c.011.412.026.826.005,1.237l-.1,1.234-.053.807-.108.805q-.051.4-.09.809c-.028.271-.09.537-.125.809-.046.312-.114.624-.191.935-.1.3-.222.605-.332.906l-.212.548-.272.523-.27.522-.13.262c-.048.086-.1.167-.151.252-.194.324-.371.658-.548.995-.21.315-.422.633-.648.942a3.464,3.464,0,0,1-.376.442l-.4.421a8.1,8.1,0,0,1-.866.776,13.787,13.787,0,0,1-3.981,2.256,16.658,16.658,0,0,1-2.454.637c-.494.09-.986.19-1.484.242-.248.03-.5.07-.745.091l-.374.028-.151.011-.051,0-.1,0a.456.456,0,0,0-.006.089l0,.484,0,1.329c0,.5.007.993.027,1.488a1.141,1.141,0,0,1-.313.973c-.028.024-.066.064-.089.054a1.533,1.533,0,0,1-.514-.28c-.093-.1-.1-.341-.149-.52a.224.224,0,0,1,0-.055l.011-.915Z" transform="translate(-714.533 -130.364)"/>
            </g>
          </g>
        </g>
        <g id="Group_7041" data-name="Group 7041" transform="translate(12.31 24.876)">
          <g id="Group_7040" data-name="Group 7040">
            <g id="Group_7039" data-name="Group 7039">
              <path id="Path_10814" data-name="Path 10814" d="M650.347,154.627c-.261.529-.476,1.076-.7,1.618l-.3.827c-.1.275-.205.551-.288.833s-.188.547-.29.819-.179.552-.26.831c-.084.324-.187.645-.248.975l-.185.99-.087.471-.056.475-.111.952a11.536,11.536,0,0,0-.051,1.9,10.145,10.145,0,0,0,.432,2.24,11.08,11.08,0,0,0,.745,2,8.848,8.848,0,0,0,1.09,1.65,17.554,17.554,0,0,0,2.261,2.187,10.646,10.646,0,0,0,1.784,1.126,19.306,19.306,0,0,0,3.436,1.426c.533.161,1.071.313,1.615.436.134.034.274.063.414.093l.566.123.418.092.209.046c.051,0,.031.047.035.079v.107l0,.834c0,.112-.015.225-.017.338,0,.411-.017.823-.005,1.233a4.752,4.752,0,0,1-.152,1.552.749.749,0,0,0-.021.224,3.45,3.45,0,0,1-.434,1.325c-.026.066-.12.1-.182.15a1.273,1.273,0,0,1-.057-.222c-.026-.351-.058-.7-.065-1.053-.008-.451.019-.9.008-1.354-.016-.613,0-1.225.013-1.838l.006-.422V177.5c0-.022,0-.045-.025-.042-.086-.017-.16-.03-.251-.044q-.227-.041-.456-.074a12.864,12.864,0,0,1-2.114-.589c-.76-.256-1.5-.573-2.235-.895a17.424,17.424,0,0,1-2.271-1.125,11.75,11.75,0,0,1-1.61-1.257,25.808,25.808,0,0,1-1.892-1.916,5.984,5.984,0,0,1-.856-1.333,8.906,8.906,0,0,1-.384-.891c-.1-.307-.216-.607-.31-.914a13.7,13.7,0,0,1-.551-1.781,10.3,10.3,0,0,1-.166-1.883,13.816,13.816,0,0,1,.1-1.854l.1-.914c.032-.3.1-.6.154-.906.065-.336.132-.671.216-1s.194-.655.283-.984c.1-.4.223-.782.35-1.168s.24-.776.393-1.153c.134-.342.251-.691.4-1.028l.433-1.011c.177-.37.346-.745.515-1.118a.839.839,0,0,1,.649-.564c.033,0,.082-.015.1,0a1.748,1.748,0,0,1,.348.443c.046.112-.036.29-.061.438a.154.154,0,0,1-.02.04c-.12.213-.227.431-.336.65Z" transform="translate(-646.741 -153.051)"/>
            </g>
          </g>
        </g>
        <g id="Group_7044" data-name="Group 7044" transform="translate(21.634 55.322)">
          <g id="Group_7043" data-name="Group 7043">
            <g id="Group_7042" data-name="Group 7042">
              <path id="Path_10815" data-name="Path 10815" d="M680.672,260.842a5.609,5.609,0,0,0,.785,1.4c.072.112.15.219.226.33a2.123,2.123,0,0,0,.241.326c.108.112.22.222.332.332s.249.191.373.288c.06.045.117.093.179.136l.194.115.389.233a8.118,8.118,0,0,0,.845.346,5.984,5.984,0,0,0,1.106.169c.175.02.348.048.521.078s.353.027.53.035l.493.011a3.616,3.616,0,0,0,.486-.045c.516-.048,1-.173,1.51-.23a3.6,3.6,0,0,0,.939-.343l.4-.184.369-.229.185-.113.171-.133.341-.266a6.709,6.709,0,0,0,1.024-1.16c.029-.042.074-.072.1-.114a4.289,4.289,0,0,0,.3-.474,1.508,1.508,0,0,1,.181-.309.921.921,0,0,1,.276-.261.162.162,0,0,0,.059-.088c.08-.218.4-.291.624-.453a.777.777,0,0,1,.2-.03.459.459,0,0,1,.022.131,2.748,2.748,0,0,1-.121.539c-.077.222-.2.421-.3.635a11.615,11.615,0,0,1-1.058,1.579,1.774,1.774,0,0,1-.372.423c-.146.121-.282.253-.436.362l-.5.36c-.179.1-.358.2-.531.316-.176.128-.373.215-.559.331l-.286.163a3.111,3.111,0,0,1-.3.121c-.164.058-.334.1-.5.144s-.345.048-.514.081c-.224.031-.445.09-.668.112a4.2,4.2,0,0,0-.671.128,2.019,2.019,0,0,1-.788.015c-.32-.031-.633-.09-.951-.142a3.51,3.51,0,0,0-.469-.015,1.878,1.878,0,0,1-.473-.027c-.157-.03-.314-.068-.47-.109a2.872,2.872,0,0,1-.46-.149l-.449-.182-.224-.093-.214-.117-.424-.239a4.234,4.234,0,0,1-.4-.282,6.058,6.058,0,0,1-.78-.756l-.413-.493c-.123-.175-.25-.347-.367-.524a7.732,7.732,0,0,1-.537-1.021c-.087-.2-.161-.4-.243-.6a.372.372,0,0,1,.2-.489.2.2,0,0,1,.084-.038c.18.005.376-.022.525,0,.1.011.125.089.188.138.006,0,0,.012.006.018.02.1.056.209.086.315Z" transform="translate(-679.559 -260.207)"/>
            </g>
          </g>
        </g>
        <g id="Group_7047" data-name="Group 7047" transform="translate(19.678 56.081)">
          <g id="Group_7046" data-name="Group 7046" transform="translate(0 0)">
            <g id="Group_7045" data-name="Group 7045">
              <path id="Path_10816" data-name="Path 10816" d="M674.207,263.939a9.626,9.626,0,0,0,.766,1.453c.16.22.3.456.48.661l.255.318.276.3c.172.206.373.382.551.586.191.189.4.365.606.538l.391.259.2.129c.068.039.139.072.209.109l.735.363.1.048.048.024c.007,0,.02.006.021.014l0,.028-.023.219-.046.436-.227,2.019c-.068.637-.132,1.275-.185,1.913-.067.776-.041,1.558-.067,2.335-.03.733-.105,1.464-.146,2.2-.031.679-.077,1.361-.065,2.039a29.973,29.973,0,0,1-.066,3.228c-.031.356-.038.714-.038,1.071s.014.722.022,1.082L678,289.1l0,3.394c0,.111-.021.222-.024.334-.009.407-.03.813-.02,1.219a3.683,3.683,0,0,1-.21,1.531.578.578,0,0,0-.029.221,2.9,2.9,0,0,1-.567,1.3c-.034.065-.154.1-.234.144a1.028,1.028,0,0,1-.069-.22c-.031-.347-.067-.694-.072-1.041-.006-.445.034-.891.023-1.336-.028-1.21.119-2.417.009-3.631a20.348,20.348,0,0,1,.013-2.138c.012-.78.053-1.56.036-2.34-.016-.816-.113-1.629-.125-2.447,0-.656.068-1.313.09-1.969a16.755,16.755,0,0,0-.053-2.581,8.448,8.448,0,0,1,.062-1.495c.054-.609.172-1.212.2-1.82.026-.586-.051-1.179-.04-1.767s.078-1.189.13-1.783l.156-1.77.088-.885.048-.442c.006-.037.008-.022.013-.038s-.006-.019-.012-.035l-.008-.012,0-.006-.059-.033c-.078-.044-.157-.086-.232-.132l-.441-.306a4.888,4.888,0,0,1-.43-.315,9.427,9.427,0,0,1-1.794-1.772,10.672,10.672,0,0,1-1.192-1.921c-.178-.382-.349-.767-.5-1.162a.742.742,0,0,1,.164-.9c.03-.028.072-.07.1-.067a3.859,3.859,0,0,1,.686.061c.131.039.19.205.286.313a.086.086,0,0,1,.013.038c.064.214.133.429.215.641Z" transform="translate(-672.675 -262.879)"/>
            </g>
          </g>
        </g>
        <g id="Group_7050" data-name="Group 7050" transform="translate(31.183 56.059)">
          <g id="Group_7049" data-name="Group 7049">
            <g id="Group_7048" data-name="Group 7048">
              <path id="Path_10817" data-name="Path 10817" d="M719.367,264.461a11.33,11.33,0,0,1-.886,1.7c-.186.262-.355.535-.567.779-.1.124-.2.25-.309.371l-.337.348a5.784,5.784,0,0,1-.732.61c-.26.181-.536.341-.8.515l-.477.264-.238.133c-.08.04-.165.075-.247.112l-.061.027-.016.006-.034.012-.069.026c-.009.006-.029.007-.031.016v.1l.108,1.816c.037.642.077,1.283.128,1.924.066.778.211,1.55.275,2.33.065.735.083,1.474.137,2.21.045.683.121,1.363.172,2.048a30.833,30.833,0,0,1,.133,3.272c-.011.362.005.724.027,1.087s.037.721.046,1.081l.09,3.786.074,3.386c0,.111-.017.223-.018.334,0,.406-.013.812.006,1.217a3.684,3.684,0,0,1-.179,1.534.58.58,0,0,0-.024.221,2.942,2.942,0,0,1-.541,1.317c-.033.066-.152.1-.232.153a1,1,0,0,1-.073-.218c-.038-.346-.081-.692-.094-1.039-.014-.445.016-.893,0-1.338-.053-1.21.07-2.422-.066-3.634a20.451,20.451,0,0,1-.031-2.14c0-.781.021-1.563-.012-2.343-.036-.816-.139-1.633-.182-2.447-.041-.647-.012-1.3-.029-1.947a16.284,16.284,0,0,0-.21-2.538,8.63,8.63,0,0,1-.127-1.482c-.024-.606.016-1.216-.035-1.819-.05-.582-.2-1.154-.266-1.734s-.116-1.18-.16-1.771q-.149-1.964-.3-3.928l-.018-.238c.066-.037.144-.067.215-.1l.435-.193.216-.094.107-.046.053-.02.213-.082.406-.2a2.613,2.613,0,0,0,.4-.227,7.041,7.041,0,0,0,1.631-1.459,8.316,8.316,0,0,0,1.1-1.683,6.392,6.392,0,0,0,.413-1.05.76.76,0,0,1,.6-.6c.038-.009.093-.03.12-.016a1.829,1.829,0,0,1,.579.384c.092.113.044.325.049.491a.15.15,0,0,1-.014.047q-.138.377-.3.739Z" transform="translate(-713.166 -262.801)"/>
            </g>
          </g>
        </g>
        <g id="Group_7053" data-name="Group 7053" transform="translate(24.832 64.533)">
          <g id="Group_7052" data-name="Group 7052" transform="translate(0 0)">
            <g id="Group_7051" data-name="Group 7051">
              <path id="Path_10818" data-name="Path 10818" d="M691.1,292.647c.239,0,.477-.007.716,0,.117,0,.234.046.352.06.135.017.271.022.407.03.257.015.515.038.772.039.157,0,.313-.043.47-.052s.3.005.443,0,.274-.01.411-.026a2.472,2.472,0,0,1,.653-.016,2.379,2.379,0,0,0,.433-.014l.761-.026.68-.02c.022,0,.045.01.067.011a2.006,2.006,0,0,0,.245,0,.35.35,0,0,1,.307.1.056.056,0,0,0,.044.013c.1-.005.177.17.263.277a.514.514,0,0,1,.03.116c-.015.013-.029.032-.044.036a1.171,1.171,0,0,1-.208.041c-.09.005-.179-.012-.268,0a4.313,4.313,0,0,0-.729.014,1.655,1.655,0,0,1-.429,0c-.156,0-.313-.018-.47-.006s-.327.063-.491.076c-.13.01-.262-.014-.393-.015a1.369,1.369,0,0,0-.514.066.692.692,0,0,1-.3.016,3.483,3.483,0,0,0-.366-.04c-.118.006-.235.063-.352.077a2.549,2.549,0,0,1-.357.008c-.237,0-.475-.005-.712-.02-.132-.008-.264-.045-.4-.058-.158-.016-.316-.022-.474-.03s-.286-.01-.43-.012a1.832,1.832,0,0,0-.24.01c-.065.008-.12-.035-.156-.2a.23.23,0,0,1-.009-.057,2.735,2.735,0,0,1,.046-.327c.016-.059.055-.064.084-.093,0,0,.006,0,.01,0l.147.011Z" transform="translate(-690.813 -292.627)"/>
            </g>
          </g>
        </g>
        <g id="Group_7056" data-name="Group 7056" transform="translate(24.832 69.806)">
          <g id="Group_7055" data-name="Group 7055">
            <g id="Group_7054" data-name="Group 7054">
              <path id="Path_10819" data-name="Path 10819" d="M691.1,311.205c.239,0,.477-.007.716,0,.117,0,.234.046.352.06.135.016.271.022.407.03.257.015.515.038.772.039.157,0,.313-.043.47-.052s.3.005.443,0,.274-.011.411-.026a2.474,2.474,0,0,1,.653-.016,2.393,2.393,0,0,0,.433-.014l.761-.026.68-.02c.022,0,.045.009.067.01a2.006,2.006,0,0,0,.245,0,.349.349,0,0,1,.307.1.055.055,0,0,0,.044.013c.1-.005.177.17.263.277a.522.522,0,0,1,.03.117c-.015.012-.029.032-.044.036a1.225,1.225,0,0,1-.208.041c-.09.005-.179-.012-.268,0a4.313,4.313,0,0,0-.729.014,1.641,1.641,0,0,1-.429,0c-.156,0-.313-.018-.47-.006s-.327.063-.491.076c-.13.01-.262-.014-.393-.015a1.368,1.368,0,0,0-.514.066.691.691,0,0,1-.3.016,3.4,3.4,0,0,0-.366-.04c-.118.006-.235.063-.352.077a2.455,2.455,0,0,1-.357.008c-.237,0-.475-.005-.712-.02-.132-.008-.264-.045-.4-.058-.158-.016-.316-.022-.474-.029s-.286-.01-.43-.012a1.751,1.751,0,0,0-.24.01c-.065.008-.12-.035-.156-.2a.234.234,0,0,1-.009-.057,2.728,2.728,0,0,1,.046-.326c.016-.059.055-.064.084-.093,0,0,.006,0,.01,0l.147.011Z" transform="translate(-690.813 -311.186)"/>
            </g>
          </g>
        </g>
        <g id="Group_7059" data-name="Group 7059" transform="translate(24.633 75.079)">
          <g id="Group_7058" data-name="Group 7058">
            <g id="Group_7057" data-name="Group 7057">
              <path id="Path_10820" data-name="Path 10820" d="M690.432,329.766c.264,0,.528-.007.792,0,.13,0,.26.046.39.06.151.016.3.022.451.03.285.015.571.038.856.039.173,0,.347-.043.52-.052s.327.005.491,0,.3-.01.455-.026a3.035,3.035,0,0,1,.723-.016,2.96,2.96,0,0,0,.481-.014l.843-.026.754-.02c.025,0,.049.009.074.01a2.46,2.46,0,0,0,.271,0,.415.415,0,0,1,.341.1.066.066,0,0,0,.049.013c.11-.005.2.17.291.277a.476.476,0,0,1,.033.117c-.017.012-.032.032-.049.036a1.489,1.489,0,0,1-.231.041c-.1.005-.2-.012-.3,0a5.274,5.274,0,0,0-.807.014,2.018,2.018,0,0,1-.476,0c-.174,0-.347-.018-.521-.006s-.362.063-.544.076c-.145.011-.291-.014-.436-.015a1.674,1.674,0,0,0-.569.066.849.849,0,0,1-.332.017c-.135-.007-.27-.046-.4-.04s-.26.063-.39.077a3.026,3.026,0,0,1-.4.008c-.263,0-.526-.005-.788-.019-.146-.008-.293-.045-.439-.059-.176-.016-.351-.022-.526-.029-.159-.007-.317-.01-.476-.012a2.141,2.141,0,0,0-.266.01c-.073.008-.134-.035-.174-.2a.235.235,0,0,1-.009-.057,2.43,2.43,0,0,1,.051-.326c.017-.059.061-.064.093-.093,0,0,.006,0,.01,0l.164.011Z" transform="translate(-690.114 -329.746)"/>
            </g>
          </g>
        </g>
        <g id="Group_7062" data-name="Group 7062" transform="translate(24.633 80.352)">
          <g id="Group_7061" data-name="Group 7061" transform="translate(0 0)">
            <g id="Group_7060" data-name="Group 7060">
              <path id="Path_10821" data-name="Path 10821" d="M690.432,348.324c.264,0,.528-.007.792,0,.13,0,.26.046.39.06.151.016.3.022.451.03.285.015.571.038.856.039.173,0,.347-.043.52-.052s.327.005.491,0,.3-.01.455-.026a3.035,3.035,0,0,1,.723-.016,2.96,2.96,0,0,0,.481-.015l.843-.026.754-.02c.025,0,.049.009.074.011a2.453,2.453,0,0,0,.271,0,.415.415,0,0,1,.341.1.066.066,0,0,0,.049.013c.11-.005.2.17.291.277a.476.476,0,0,1,.033.117c-.017.012-.032.032-.049.036a1.461,1.461,0,0,1-.231.041c-.1.005-.2-.012-.3,0a5.282,5.282,0,0,0-.807.014,2.018,2.018,0,0,1-.476,0c-.174,0-.347-.018-.521-.006s-.362.063-.544.076c-.145.01-.291-.014-.436-.015a1.668,1.668,0,0,0-.569.066.854.854,0,0,1-.332.016c-.135-.007-.27-.046-.4-.04s-.26.063-.39.077a3.1,3.1,0,0,1-.4.007c-.263,0-.526-.005-.788-.019-.146-.008-.293-.045-.439-.058-.176-.016-.351-.023-.526-.03-.159-.007-.317-.01-.476-.012a2.246,2.246,0,0,0-.266.01c-.073.008-.134-.035-.174-.2a.233.233,0,0,1-.009-.057,2.43,2.43,0,0,1,.051-.326c.017-.059.061-.064.093-.093,0,0,.006,0,.01,0l.164.011Z" transform="translate(-690.114 -348.304)"/>
            </g>
          </g>
        </g>
        <g id="Group_7065" data-name="Group 7065" transform="translate(24.633 85.625)">
          <g id="Group_7064" data-name="Group 7064">
            <g id="Group_7063" data-name="Group 7063">
              <path id="Path_10822" data-name="Path 10822" d="M690.432,366.882c.264,0,.528-.007.792,0,.13,0,.26.046.39.06.151.016.3.022.451.03.285.015.571.038.856.039.173,0,.347-.043.52-.052s.327.005.491,0,.3-.01.455-.026a3.052,3.052,0,0,1,.723-.016,2.926,2.926,0,0,0,.481-.014l.843-.026.754-.02c.025,0,.049.01.074.01a2.468,2.468,0,0,0,.271,0,.416.416,0,0,1,.341.1.066.066,0,0,0,.049.013c.11-.005.2.17.291.277a.477.477,0,0,1,.033.117c-.017.013-.032.032-.049.036a1.471,1.471,0,0,1-.231.041c-.1.005-.2-.012-.3,0a5.3,5.3,0,0,0-.807.014,2.013,2.013,0,0,1-.476,0c-.174,0-.347-.018-.521-.006s-.362.063-.544.076c-.145.011-.291-.014-.436-.015a1.671,1.671,0,0,0-.569.066.855.855,0,0,1-.332.016c-.135-.007-.27-.046-.4-.04s-.26.063-.39.077a3.124,3.124,0,0,1-.4.008c-.263,0-.526-.005-.788-.02-.146-.008-.293-.045-.439-.058-.176-.016-.351-.022-.526-.03-.159-.007-.317-.01-.476-.012a2.246,2.246,0,0,0-.266.01c-.073.008-.134-.035-.174-.2a.232.232,0,0,1-.009-.057,2.426,2.426,0,0,1,.051-.326c.017-.059.061-.064.093-.093,0,0,.006,0,.01,0l.164.011Z" transform="translate(-690.114 -366.862)"/>
            </g>
          </g>
        </g>
        <g id="Group_7068" data-name="Group 7068" transform="translate(12.482 54.217)">
          <g id="Group_7067" data-name="Group 7067">
            <g id="Group_7066" data-name="Group 7066">
              <path id="Path_10823" data-name="Path 10823" d="M647.428,282.208c.072-1.074.127-2.155.214-3.233.042-.531.143-1.057.2-1.588.069-.612.123-1.225.182-1.838q.184-1.746.367-3.491c.071-.707.078-1.422.148-2.131.065-.669.171-1.335.263-2l.252-1.861a15.676,15.676,0,0,1,.628-2.944,13.443,13.443,0,0,1,.735-1.952,3.983,3.983,0,0,1,.262-.426c.094-.14.193-.246.289-.37s.2-.236.3-.347.206-.228.321-.33a10.136,10.136,0,0,1,1.415-1.147,14.624,14.624,0,0,1,2.844-1.487c.1-.039.2-.061.3-.1.36-.126.725-.238,1.086-.358a4.769,4.769,0,0,1,.7-.188,2.938,2.938,0,0,1,.706-.03.628.628,0,0,0,.2-.028,2.89,2.89,0,0,1,1.262.135c.065.011.117.1.176.145a1.093,1.093,0,0,1-.18.1c-.3.1-.6.208-.9.291-.39.106-.794.174-1.178.288A13.141,13.141,0,0,0,655,258.468c-.539.326-1.115.6-1.635.954a7.826,7.826,0,0,0-1.556,1.334c-.118.134-.218.281-.325.422a1.81,1.81,0,0,0-.13.215,1.639,1.639,0,0,0-.114.222c-.068.158-.139.311-.193.48s-.118.329-.17.5c-.179.538-.369,1.089-.506,1.657a11.2,11.2,0,0,0-.35,2.272,10.39,10.39,0,0,1-.184,1.331c-.09.542-.224,1.078-.282,1.624-.056.527-.027,1.061-.062,1.59s-.1,1.071-.15,1.607q-.152,1.6-.3,3.2c-.058.6-.159,1.187-.222,1.783-.075.711-.131,1.425-.189,2.139l-.143,1.94c-.024.363-.048.727-.058,1.091a.712.712,0,0,1-.377.687c-.029.015-.07.041-.093.031a1.848,1.848,0,0,1-.494-.25c-.086-.078-.081-.254-.116-.387a.113.113,0,0,1,0-.04l.066-.663Z" transform="translate(-647.347 -256.319)"/>
            </g>
          </g>
        </g>
        <g id="Group_7072" data-name="Group 7072" transform="translate(26.57 39.532)">
          <g id="Group_7071" data-name="Group 7071">
            <g id="Group_7070" data-name="Group 7070">
              <g id="Group_7069" data-name="Group 7069">
                <path id="Path_10824" data-name="Path 10824" d="M701.066,207.841a1.721,1.721,0,0,1-.469.572,1.773,1.773,0,0,1-.615.31,1.946,1.946,0,0,1-.611.023,4.653,4.653,0,0,1-.646-.062,2.649,2.649,0,0,1-1.155-.505A1.565,1.565,0,0,1,697,207.5a1.614,1.614,0,0,1-.027-.823,4.935,4.935,0,0,1,.184-.658,1.741,1.741,0,0,1,.651-.886,2.948,2.948,0,0,0,.323-.217,3.64,3.64,0,0,1,.361-.187c.117-.034.239-.059.36-.084a2.129,2.129,0,0,1,.374-.008,1.757,1.757,0,0,1,.71.192,2.512,2.512,0,0,1,.916.788c.023.032.031.074.051.108.072.124.126.257.193.386a.534.534,0,0,1,0,.562.1.1,0,0,0-.011.079c.03.177-.252.319-.433.405a.733.733,0,0,1-.185.011c-.018-.02-.048-.041-.052-.058-.015-.08-.05-.154-.059-.228a1.211,1.211,0,0,0-.053-.292c-.106-.243-.182-.557-.453-.693-.153-.071-.251-.2-.389-.267a1.054,1.054,0,0,0-.224-.092.783.783,0,0,0-.236-.014.859.859,0,0,0-.228.1c-.066.063-.129.1-.191.156a.831.831,0,0,1-.163.107c-.053.043-.11.084-.161.131a1.455,1.455,0,0,0-.159.229.656.656,0,0,0-.049.288c.024.12-.052.209-.075.3a.607.607,0,0,0-.087.3c.018.094.137.12.187.156s.1.1.184.148a1.831,1.831,0,0,0,.646.224,3.447,3.447,0,0,0,.432.09,1.166,1.166,0,0,0,.472-.078.652.652,0,0,0,.29-.217.365.365,0,0,0,.076-.185c.011-.055.077-.085.354-.081a.445.445,0,0,1,.091,0,2.384,2.384,0,0,1,.489.166c.083.047.078.124.1.192,0,.007,0,.012-.005.018a1.743,1.743,0,0,1-.133.275Z" transform="translate(-696.933 -204.634)"/>
              </g>
            </g>
          </g>
        </g>
        <g id="Group_7081" data-name="Group 7081" transform="translate(0)">
          <g id="Group_7076" data-name="Group 7076">
            <g id="Group_7075" data-name="Group 7075">
              <g id="Group_7074" data-name="Group 7074">
                <g id="Group_7073" data-name="Group 7073">
                  <path id="Path_10825" data-name="Path 10825" d="M606.9,73.925a4.86,4.86,0,0,1-1.588-.34,3.161,3.161,0,0,1-1.383-1.09,3.215,3.215,0,0,1-.493-1.6,6.363,6.363,0,0,1,.111-1.745,3.6,3.6,0,0,1,.726-1.56,4.711,4.711,0,0,1,1.265-1.088,6.828,6.828,0,0,1,1.794-.82,7.256,7.256,0,0,1,1.834-.186,9.085,9.085,0,0,1,1.715.168,5.332,5.332,0,0,1,1.342.456,3.4,3.4,0,0,1,1.155.949,3.717,3.717,0,0,1,.823,1.892,3.923,3.923,0,0,1-.029.891l-.03.216-.042.2c-.03.131-.053.261-.094.393a5.207,5.207,0,0,1-.677,1.552,3.924,3.924,0,0,1-1.138,1.124c-.216.144-.431.258-.607.359a1.226,1.226,0,0,0-.312.215s-.017-.006-.022,0a.331.331,0,0,0-.015.122l.019.145.047.17a2.743,2.743,0,0,1,.217,1.066.344.344,0,0,0,.047.16c.171.328,0,.745-.027,1.137,0,.061-.1.14-.147.211a.7.7,0,0,1-.143-.117,6.517,6.517,0,0,1-.448-.687c-.164-.313-.285-.647-.427-.981a3.445,3.445,0,0,1-.228-.731,1.676,1.676,0,0,1,.058-.9,1.206,1.206,0,0,1,.285-.411,2.112,2.112,0,0,1,.342-.262,6.713,6.713,0,0,0,.593-.391,4.078,4.078,0,0,0,1.035-1,4.355,4.355,0,0,0,.587-1.553,2.32,2.32,0,0,0-.274-1.53,2.633,2.633,0,0,0-.778-.94,2.806,2.806,0,0,0-1.646-.545c-.344,0-.685-.067-1.033-.1a5.11,5.11,0,0,0-1.284,0,4.643,4.643,0,0,0-1.13.453,5.471,5.471,0,0,0-1.01.567,2.919,2.919,0,0,0-.735.778,2.842,2.842,0,0,0-.357.992,4.591,4.591,0,0,0-.1,1.311,1.817,1.817,0,0,0,.631,1.222,2.527,2.527,0,0,0,1.247.518,3.247,3.247,0,0,0,.826.028.562.562,0,0,1,.594.353.264.264,0,0,1,.049.106,2.023,2.023,0,0,1-.1.662c-.055.123-.227.151-.35.212a.09.09,0,0,1-.039,0,6.43,6.43,0,0,1-.649-.026Z" transform="translate(-603.415 -65.497)"/>
                </g>
              </g>
            </g>
          </g>
          <g id="Group_7080" data-name="Group 7080" transform="translate(7.821 13.003)">
            <g id="Group_7079" data-name="Group 7079">
              <path id="Path_10826" data-name="Path 10826" d="M633.371,112.528a.948.948,0,1,1-1.19-.618A.948.948,0,0,1,633.371,112.528Z" transform="translate(-631.355 -111.694)"/>
              <g id="Group_7078" data-name="Group 7078">
                <g id="Group_7077" data-name="Group 7077">
                  <path id="Path_10827" data-name="Path 10827" d="M632.983,112.088l-.126.013c-.058.006-.075,0-.07-.023a.186.186,0,0,0,.008-.043.159.159,0,0,0-.052-.111c0-.006-.015-.008-.022-.012s-.022,0-.022-.014c0-.084-.076-.115-.118-.17-.038-.032-.089-.046-.128-.074-.02-.016-.034-.047-.06-.052-.1-.018-.185-.057-.282-.068-.03,0-.059,0-.089,0s-.058-.009-.083.018-.046,0-.07,0a.175.175,0,0,0-.147.045c-.03.031-.074.032-.114.046-.019,0-.024.026-.04.034a.22.22,0,0,0-.118.091c-.031.051-.082.085-.1.145-.012.04-.044.068-.049.109s-.016.1-.022.142a.1.1,0,0,1-.018.048.094.094,0,0,0-.011.07.2.2,0,0,1-.015.077s-.011.008-.007.012c.049.041-.024.084-.016.128,0,.029-.016.064,0,.091s.016.045.031.066a.053.053,0,0,1,0,.055.034.034,0,0,0,.018.05c.023.009.024.028.035.041a.412.412,0,0,0,.049.034.071.071,0,0,1,.016.012l.053.07.067.057c.017.014.046.014.054.038a.1.1,0,0,0,.037.053.158.158,0,0,0,.036.018.107.107,0,0,1,.084.079c0,.009.012.005.017.01l.046.047a.02.02,0,0,0,.02.007.1.1,0,0,1,.08.025.167.167,0,0,0,.108.018,2.059,2.059,0,0,1,.274-.042.3.3,0,0,0,.106-.022c.016-.008.028-.027.042-.038s.051,0,.076-.009a.158.158,0,0,0,.107-.075c.029-.043.063-.076.093-.115s.069-.041.074-.084c.014-.076.081-.117.093-.191a.456.456,0,0,0,.031-.166.217.217,0,0,0-.024-.086.032.032,0,0,1,0-.015c0-.03-.02-.06-.033-.088a.451.451,0,0,1-.022-.094c0-.019.021-.042.064-.072a.864.864,0,0,0,.088-.072c.1-.029.1-.028.119-.009a.206.206,0,0,1,.046.126.4.4,0,0,1,.012.086c-.005.072.027.147.023.223v0c0,.059,0,.12-.014.179-.007.03-.011.063-.02.093a.207.207,0,0,1-.028.055c-.012.018-.038.029-.042.05-.007.07-.067.111-.094.17-.02.031-.032.074-.082.08-.028.09-.125.107-.18.168a.384.384,0,0,1-.192.114.488.488,0,0,1-.166.02.651.651,0,0,0-.147.025c-.044.007-.089.03-.136.037a.307.307,0,0,1-.133-.005l-.163-.042a1.632,1.632,0,0,1-.15-.071.593.593,0,0,1-.134-.093.742.742,0,0,1-.118-.109c-.027-.032-.044-.071-.087-.086-.063-.021-.063-.095-.134-.115,0,0-.005-.007-.008-.01a.932.932,0,0,1-.167-.456c-.007-.082.026-.164.026-.242.005-.046.024-.089.026-.136a.97.97,0,0,1,.022-.2.029.029,0,0,1,0-.012,1.65,1.65,0,0,1,.1-.175c.028-.032.022-.093.079-.1.042-.109.15-.157.235-.22.016-.014.025-.043.045-.05.038-.014.067-.048.112-.047s.1-.036.15-.042.121-.014.18-.025.119-.007.18-.018a.885.885,0,0,1,.544.172c.02.011.045.015.064.028s.015.031.028.039c.07.061.132.132.2.2a.325.325,0,0,1,.122.252.075.075,0,0,0,.021.043C633.094,112.024,633.083,112.038,632.983,112.088Z" transform="translate(-630.941 -111.262)"/>
                </g>
              </g>
            </g>
          </g>
        </g>
        <g id="Group_7083" data-name="Group 7083" transform="translate(12.929 62.814)">
          <g id="Group_7082" data-name="Group 7082">
            <path id="Path_10828" data-name="Path 10828" d="M658.577,287.617l-2.933,18.952s-1.558,4.26-4.367,3.792c-1.838-.306-2.612-2.918-2.286-4.911.846-5.176,5.235-18.873,5.235-18.873S656.07,287.012,658.577,287.617Z" transform="translate(-648.919 -286.577)" fill="#fff"/>
          </g>
        </g>
        <g id="Group_7085" data-name="Group 7085" transform="translate(14.305 63.297)">
          <g id="Group_7084" data-name="Group 7084" transform="translate(0 0)">
            <path id="Path_10829" data-name="Path 10829" d="M662.054,288.611l-2.941,19.175s-1.1,4.052-3.913,3.584c-1.84-.306-1.505-2.658-1.18-4.65.846-5.175,4.774-18.443,4.774-18.443A16.667,16.667,0,0,0,662.054,288.611Z" transform="translate(-653.765 -288.277)" fill="#eff5cc"/>
          </g>
        </g>
        <g id="Group_7089" data-name="Group 7089" transform="translate(12.373 62.068)">
          <g id="Group_7088" data-name="Group 7088" transform="translate(0 0)">
            <g id="Group_7087" data-name="Group 7087">
              <g id="Group_7086" data-name="Group 7086">
                <path id="Path_10830" data-name="Path 10830" d="M657.452,287.984c-.277,1.786-.542,3.574-.834,5.357-.143.878-.346,1.746-.5,2.622-.184,1.011-.35,2.026-.52,3.039-.324,1.929-.657,3.841-.962,5.784a8.248,8.248,0,0,1-.614,1.794,4.757,4.757,0,0,1-1.164,1.561,3.683,3.683,0,0,1-1.729.812,4.106,4.106,0,0,1-.95.031l-.234-.018a1.118,1.118,0,0,1-.242-.035,2.222,2.222,0,0,1-.495-.15,3.052,3.052,0,0,1-1.373-1.2,5.423,5.423,0,0,1-.666-1.585,6.384,6.384,0,0,1-.109-2.664c.164-.819.318-1.647.534-2.452.305-1.055.505-2.147.791-3.208l.747-2.793.784-2.78c.48-1.653.964-3.306,1.467-4.952.048-.162.114-.319.166-.481l.286-.883.336-1.079.17-.548.043-.136.021-.068a.274.274,0,0,1,.069.013l.282.068.563.14.258.067.141.041a7.563,7.563,0,0,1,1.089.41,1.652,1.652,0,0,0,.322.1,6.886,6.886,0,0,1,1.831.9c.091.05.118.157.175.237a2.62,2.62,0,0,1-.338-.021c-.518-.1-1.039-.187-1.554-.3-.33-.075-.658-.159-.987-.242l-.493-.123-.458-.107-.17-.036-.084-.019a.371.371,0,0,0-.029.082l-.144.446-.429,1.311c-.281.875-.555,1.754-.776,2.65-.252,1.047-.617,2.076-.923,3.116-.329,1.139-.7,2.268-.989,3.416-.3,1.2-.569,2.412-.833,3.618-.111.481-.236.959-.364,1.437s-.219.957-.323,1.438l-.191.943c-.036.161-.04.3-.061.451,0,.15-.018.3-.013.45a4.658,4.658,0,0,0,.352,1.743,3.365,3.365,0,0,0,1.058,1.512l.107.071c.036.021.076.034.114.053l.114.055.122.033.122.036.149.015.3.034a1.16,1.16,0,0,0,.295,0l.294-.017.28-.074.14-.037c.045-.016.087-.041.131-.061l.25-.124c.078-.052.151-.113.226-.168l.111-.084c.034-.032.067-.068.1-.1l.2-.2a5.791,5.791,0,0,0,.623-.989,7.7,7.7,0,0,0,.448-1.139c.032-.1.055-.2.08-.292l.028-.123.027-.167.107-.669c.28-1.773.558-3.548.855-5.318.165-.989.378-1.968.553-2.956.209-1.179.4-2.361.6-3.542l.516-3.211c.093-.6.186-1.2.262-1.8a1.555,1.555,0,0,1,.512-1.123c.033-.024.08-.066.1-.05a1.554,1.554,0,0,1,.473.425,2,2,0,0,1,.052.653.34.34,0,0,1-.01.067l-.19,1.1Z" transform="translate(-646.963 -283.953)"/>
              </g>
            </g>
          </g>
        </g>
        <g id="Group_7097" data-name="Group 7097" transform="translate(17.987 44.624)">
          <g id="Group_7091" data-name="Group 7091" transform="translate(0.475 0.599)">
            <g id="Group_7090" data-name="Group 7090">
              <path id="Path_10831" data-name="Path 10831" d="M676.58,235.533c-.486-.585-1.607-.376-2.025-.462s-.2-1.505-.808-1.843c-.316-.174-1.069.036-1.726.28a8.254,8.254,0,0,0,.146-1.9s.112-4.2-.685-5.922c-.425-.914-1.023-1.09-1.336-1-1.458.43-.551,2.92-.551,2.92a30.627,30.627,0,0,1,0,7.353c-.681,1.663-1.2,7-1.2,7a4.618,4.618,0,0,0,2.228,1.213,3.672,3.672,0,0,0,2.189-.153c.49-1.447.665-1.112.665-1.112,1.622.211,2.574-.613,3.411-3.668C677.317,236.665,677.111,236.172,676.58,235.533Z" transform="translate(-668.394 -224.665)" fill="#fff"/>
            </g>
          </g>
          <g id="Group_7096" data-name="Group 7096">
            <g id="Group_7095" data-name="Group 7095">
              <g id="Group_7094" data-name="Group 7094">
                <g id="Group_7093" data-name="Group 7093">
                  <g id="Group_7092" data-name="Group 7092">
                    <path id="Path_10832" data-name="Path 10832" d="M671.319,231.213a4.663,4.663,0,0,1,.487-.111,2.382,2.382,0,0,1,.274-.033,1.269,1.269,0,0,1,.336.01,1.635,1.635,0,0,1,.414.117,1.16,1.16,0,0,1,.323.267,1.47,1.47,0,0,1,.211.335,2.261,2.261,0,0,1,.105.281,7.06,7.06,0,0,1,.182.937l.024.141,0,.01c0,.006.006.013.013.012h.017l.339-.044a2.162,2.162,0,0,1,.9.061,1.34,1.34,0,0,1,.444.236,1.3,1.3,0,0,1,.182.175.913.913,0,0,1,.062.075l.047.062c.063.082.124.161.189.26a2.439,2.439,0,0,1,.185.3,1.821,1.821,0,0,1,.155.341,1.628,1.628,0,0,1,.1.367,3.158,3.158,0,0,1,.046.727,5.039,5.039,0,0,1-.126.756l-.089.36-.105.338a10.464,10.464,0,0,1-.512,1.337c-.073.151-.143.3-.231.451a4.271,4.271,0,0,1-.27.438,3.7,3.7,0,0,1-.706.8,2.5,2.5,0,0,1-2.1.576l-.119-.04a.322.322,0,0,0,.065.026l.017,0h0c-.013.065.118-.564.063-.3h0v0l0,.008a.1.1,0,0,0,0,.031.466.466,0,0,0,.014.072c.009.03.021.028.039.074a.493.493,0,0,0,.058.093.005.005,0,0,0,0,0,.117.117,0,0,0-.011.015.37.37,0,0,1-.028.033,1.122,1.122,0,0,0-.064.107.7.7,0,0,0-.064.129,2.584,2.584,0,0,0-.114.295l-.092.26-.046.13-.023.065-.063.029a2.613,2.613,0,0,1-.293.115l-.15.05c-.053.019-.076.02-.116.031a3.748,3.748,0,0,1-.431.086,4.692,4.692,0,0,1-.867.048,4.6,4.6,0,0,1-1.7-.383l-.366-.188c-.119-.067-.231-.144-.347-.216a4.694,4.694,0,0,1-.748-.623l-.114-.114c0-.052.007-.107.01-.16.009-.107.014-.214.027-.321l.046-.4.086-.746c.1-.923.22-1.845.342-2.769l.168-1.1c.077-.371.143-.738.236-1.112l.178-.572.041-.126c-.007.02-.01.043,0-.008l.029-.267q.058-.54.116-1.081a23.762,23.762,0,0,0,.083-2.878l-.013-.734-.051-.725-.025-.362c-.013-.119-.035-.234-.052-.351l-.1-.675c.006.019-.018-.05-.032-.095l-.043-.141c-.027-.094-.053-.188-.076-.283-.048-.189-.083-.383-.113-.58a3.337,3.337,0,0,1,.04-1.283,1.86,1.86,0,0,1,.145-.391c.034-.065.067-.13.1-.193s.1-.122.146-.181a1.588,1.588,0,0,1,.355-.3,2.69,2.69,0,0,1,.415-.189,1.362,1.362,0,0,1,.775.027,1.974,1.974,0,0,1,.308.137,2.864,2.864,0,0,1,.256.178,2.722,2.722,0,0,1,.669.867,6.4,6.4,0,0,1,.539,1.8c.033.156.032.313.055.469.072.567.107,1.129.15,1.688a6.867,6.867,0,0,1-.106,2.111,1.016,1.016,0,0,0-.021.15c0,.049,0,.094,0,.149a2.783,2.783,0,0,1-.178.935,8.294,8.294,0,0,1-.392.82c-.04.084-.147.1-.219.135,0-.083-.009-.18,0-.274a11.044,11.044,0,0,0,.041-1.362c.009-.6.036-1.192.007-1.791-.042-.809-.069-1.619-.166-2.417a4.979,4.979,0,0,0-.663-2.206,1.645,1.645,0,0,0-.4-.4.553.553,0,0,0-.384-.105.813.813,0,0,0-.4.273,1.314,1.314,0,0,0-.179.537,3.339,3.339,0,0,0,.033.826c.02.141.049.283.082.423.016.07.036.14.054.209l.03.1.042.127.1.694c.033.226.074.453.085.677l.076.84c.026.28.031.558.048.838.039.56.033,1.117.03,1.676-.03.892-.125,1.777-.224,2.668l-.007.068a.34.34,0,0,1-.02.1l-.047.149-.06.192-.121.385c-.065.271-.119.55-.175.824s-.088.562-.127.842-.067.565-.081.852c-.043.657-.156,1.323-.249,1.985-.053.405-.122.809-.18,1.213l-.022.151a.285.285,0,0,1-.009.04c-.008.022-.013.044.008.058a2.443,2.443,0,0,0,.322.257,3.335,3.335,0,0,0,.954.444,4.225,4.225,0,0,0,.5.109c.17.018.344.037.514.046a3.835,3.835,0,0,0,1.007-.085l.089-.02s0,0,0,0l0-.006.045-.135.14-.332c.03-.06.069-.125.1-.186l.054-.093c.022-.033.055-.073.083-.108l.092-.107a1.163,1.163,0,0,1,.157-.126.827.827,0,0,1,.093-.058,1.034,1.034,0,0,1,.156-.058.611.611,0,0,1,.194-.028.808.808,0,0,1,.123.009l.031,0,.059.016a.72.72,0,0,1,.114.045l-.187-.062a1.526,1.526,0,0,0,1.38-.453,4.755,4.755,0,0,0,.96-1.553c.165-.382.305-.786.443-1.192a3.474,3.474,0,0,0,.2-1.133,1.834,1.834,0,0,0-.559-1.145.407.407,0,0,0-.134-.1.7.7,0,0,0-.231-.045,2.064,2.064,0,0,0-.328.017c-.126.012-.22.035-.487.056a1.74,1.74,0,0,1-.33-.012.732.732,0,0,1-.246-.1.69.69,0,0,1-.185-.192,1.425,1.425,0,0,1-.191-.522l-.022-.118-.014-.089-.025-.171-.049-.322a1.93,1.93,0,0,0-.144-.52.168.168,0,0,0-.163-.109,2.412,2.412,0,0,0-.666.117,6.536,6.536,0,0,0-.723.258,1.377,1.377,0,0,1-1.078.111c-.035-.014-.09-.031-.09-.056a1.366,1.366,0,0,1,.069-.6c.062-.13.311-.247.483-.365a.319.319,0,0,1,.058-.024,10.074,10.074,0,0,1,1.012-.33Z" transform="translate(-666.723 -222.555)"/>
                  </g>
                </g>
              </g>
            </g>
          </g>
        </g>
      </g>
    </g>
    <g id="入力icon" transform="translate(-886.813 443.889)">
      <g id="Group_7118" data-name="Group 7118" transform="translate(1175.948 257.701)">
        <path id="Path_10855" data-name="Path 10855" d="M1184.942,256.036l2.482.624-7.418,7.418-1.553-1.553Z" transform="translate(-1174.284 -256.036)" fill="#eff5cc"/>
        <path id="Path_10856" data-name="Path 10856" d="M1179.288,260.441l-2.33-2.33-1.062,5.722,5.722-1.062Z" transform="translate(-1175.896 -254.729)" fill="#eff5cc"/>
      </g>
      <g id="Group_7119" data-name="Group 7119" transform="translate(1175.948 253.524)">
        <path id="Path_10857" data-name="Path 10857" d="M1183.965,253.561l.624,2.482-6.489,6.489-1.553-1.553Z" transform="translate(-1175.485 -253.42)" fill="#cfec38"/>
        <rect id="Rectangle_5684" data-name="Rectangle 5684" width="9.176" height="2.197" transform="translate(2.616 9.112) rotate(-45)" fill="#cfec38"/>
        <path id="Path_10858" data-name="Path 10858" d="M1176.9,261.271l-.689-.689-.314,1.692,1.692-.314Z" transform="translate(-1175.896 -248.994)" fill="#cfec38"/>
        <path id="Path_10859" data-name="Path 10859" d="M1183.275,257.651l2.482.624h0l.141-.141-.7-1.63-1.165-1.165-1.165-1.165-1.63-.7-.141.141.624,2.482Z" transform="translate(-1172.617 -253.474)" fill="#cfec38"/>
      </g>
      <path id="Path_10860" data-name="Path 10860" d="M1188.212,256.512l-2.354-2.366-1.731-.752-7.534,7.532-.118.192,1.516,1.516.155-.155-1.4-1.4,7.2-7.2h0l.254,1.014.308,1.221-6.368,6.366.155.155,6.334-6.334,1.4,1.4-6.334,6.334.155.155,6.366-6.368,1.149.29,1.334.336.236-.238Zm-.74,1.4-1.227-.308-.056-.057-1.4-1.4-.055-.055-.328-1.3-.276-1.094.046-.044,1.541.664,2.3,2.3.663,1.541-.044.046Z" transform="translate(0.418)" fill="#edfffa"/>
      <path id="Path_10861" data-name="Path 10861" d="M1188.874,256.455l-7.2,7.2L1177.01,259l-.117.192-1.081,5.822,5.822-1.081.192-.117,7.3-7.3Zm-12.788,8.285.994-5.362,1.329,1.329.155.155,1.4,1.4.155.155,1.329,1.329Z" transform="translate(0 1.929)" fill="#fff"/>
      <ellipse id="Ellipse_1803" data-name="Ellipse 1803" cx="0.363" cy="1.098" rx="0.363" ry="1.098" transform="translate(1185.702 255.435) rotate(-45)" fill="#edfffa"/>
    </g>
    <path id="Path_11189" data-name="Path 11189" d="M100.668,313.332l18.53-36.555H284.848l-16.942,36.555H100.668Z" transform="translate(20.698 346.598)" fill="#fff" stroke="#efdb37" stroke-width="1"/>
    <path id="Path_11070" data-name="Path 11070" d="M125.67,276.776Z" transform="translate(-56.883 357.353)" fill="#fff"/>
    <path id="Path_11192" data-name="Path 11192" d="M100.668,313.332l18.53-36.555H284.848l-16.942,36.555H100.668Z" transform="translate(39.698 303.574)" fill="#fff" stroke="#efdb37" stroke-width="1"/>
    <text id="データ入力" transform="translate(235 708)" fill="#5a5757" font-size="10" font-family="SourceHanSansJP-Regular, Source Han Sans JP" style="isolation: isolate"><tspan x="0" y="0">データ入力</tspan></text>
    <g id="Group_6828" data-name="Group 6828" transform="translate(-5 25)">
      <g id="Pass初期" transform="translate(144.036 590.31)">
        <text id="_8文字以上の英数字" data-name="8文字以上の英数字" transform="translate(21.263 29.62)" fill="#5a5757" font-size="12" font-family="SourceHanSansJP-Regular, Source Han Sans JP" style="isolation: isolate"><tspan x="0" y="0">8文字以上の英数字</tspan></text>
      </g>
      <g id="入力完了" transform="translate(127.036 546.734)">
        <text id="_0x39c6D12621b02327DbD_611007C0d24A7259Ed793" data-name="0x39c6D12621b02327DbD
611007C0d24A7259Ed793" transform="translate(38.263 8.615)" fill="#5a5757" font-size="12" font-family="SourceHanSansJP-Regular, Source Han Sans JP"><tspan x="0" y="11">0x39c6D12621b02327DbD</tspan><tspan x="0" y="27">611007C0d24A7259Ed793</tspan></text>
      </g>
      <text id="Password" transform="translate(52.5 619.93)" fill="#5a5757" font-size="12" font-family="SourceHanSansJP-Medium, Source Han Sans JP" font-weight="500"><tspan x="0" y="0">Password</tspan></text>
      <text id="VW_ID" data-name="VW ID" transform="translate(97.5 575.466)" fill="#5a5757" font-size="12" font-family="SourceHanSansJP-Medium, Source Han Sans JP" font-weight="500"><tspan x="0" y="0">VW ID</tspan></text>
    </g>
    <text id="_42桁の英数字_ユーザー毎のID" data-name="※42桁の英数字・ユーザー毎のID" transform="translate(252 575.68)" fill="#5a5757" font-size="10" font-family="SourceHanSansJP-Regular, Source Han Sans JP" style="isolation: isolate"><tspan x="-75.35" y="0">※42桁の英数字・ユーザー毎のID</tspan></text>
  </g>
</svg>
