<svg xmlns="http://www.w3.org/2000/svg" width="1006.271" height="508.847" viewBox="0 0 1006.271 508.847">
  <g id="mosaic" transform="translate(-63.52 228.462) rotate(-37)">
    <g id="Group_7150" data-name="Group 7150" transform="translate(2.213 33.823)">
      <path id="Path_11071" data-name="Path 11071" d="M0,49.318l50.853-.562L51.415,0,.562.562Z" transform="matrix(0.97, 0.244, -0.244, 0.97, 67.303, 0)" fill="#f5d221"/>
      <path id="Path_11072" data-name="Path 11072" d="M0,17.572l18.108-.2L18.308,0,.2.2Z" transform="matrix(0.97, 0.245, -0.245, 0.97, 228.178, 110.067)" fill="#cbcd28"/>
      <path id="Path_11073" data-name="Path 11073" d="M0,47.2l48.668-.538L49.206,0,.538.538Z" transform="translate(162.699 78.918) rotate(14.143)" fill="#cbcd28"/>
      <path id="Path_11074" data-name="Path 11074" d="M0,45.733l47.139-.521L47.66,0,.522.521Z" transform="translate(109.16 66.805) rotate(14.156)" fill="#f1df3f"/>
      <path id="Path_11075" data-name="Path 11075" d="M0,47.846,49.327,47.3,49.872,0,.546.546Z" transform="translate(54.229 52.5) rotate(14.152)" fill="#efeec0"/>
      <path id="Path_11076" data-name="Path 11076" d="M0,31.122l32.084-.355L32.439,0,.355.355Z" transform="translate(317.568 179.387) rotate(14.166)" fill="#cbcd28"/>
      <path id="Path_11077" data-name="Path 11077" d="M0,41.921l43.207-.478L43.685,0,.478.478Z" transform="matrix(0.97, 0.245, -0.245, 0.97, 259.321, 159.772)" fill="#efeec0"/>
      <path id="Path_11078" data-name="Path 11078" d="M0,40.218l41.464-.459L41.922,0,.459.459Z" transform="matrix(0.97, 0.245, -0.245, 0.97, 205.85, 147.796)" fill="#f5d221"/>
      <path id="Path_11079" data-name="Path 11079" d="M0,51.652l53.252-.589L53.841,0,.589.589Z" transform="matrix(0.97, 0.245, -0.245, 0.97, 147.353, 127.792)" fill="#f5d221"/>
      <path id="Path_11080" data-name="Path 11080" d="M0,38.321l39.5-.437L39.94,0,.437.437Z" transform="translate(98.353 122.94) rotate(14.162)" fill="#cbcd28"/>
      <path id="Path_11081" data-name="Path 11081" d="M0,46.361l47.794-.529L48.323,0,.529.529Z" transform="translate(41.153 105.007) rotate(14.154)" fill="#efeec0"/>
      <path id="Path_11082" data-name="Path 11082" d="M0,48.045l48.133-.532L48.681,0,.548.532Z" transform="translate(838.576 350.737) rotate(14.148)" fill="#f5d221"/>
      <path id="Path_11083" data-name="Path 11083" d="M0,20.11l20.74-.229L20.969,0,.229.229Z" transform="translate(795.166 354.824) rotate(14.146)" fill="#cbcd28"/>
      <path id="Path_11084" data-name="Path 11084" d="M0,8.468l8.729-.1L8.826,0,.1.1Z" transform="translate(745.52 348.942) rotate(14.154)" fill="#cbcd28"/>
      <path id="Path_11085" data-name="Path 11085" d="M0,9.948l10.262-.113L10.375,0,.113.113Z" transform="matrix(0.97, 0.243, -0.243, 0.97, 690.827, 335.029)" fill="#cbcd28"/>
      <path id="Path_11086" data-name="Path 11086" d="M0,8.468l8.73-.1L8.827,0,.1.1Z" transform="matrix(0.969, 0.245, -0.245, 0.969, 637.293, 322.918)" fill="#cbcd28"/>
      <path id="Path_11087" data-name="Path 11087" d="M0,20.108l20.735-.229L20.965,0,.229.229Z" transform="translate(578.713 302.786) rotate(14.146)" fill="#cbcd28"/>
      <path id="Path_11088" data-name="Path 11088" d="M0,20.32l20.955-.232L21.186,0,.231.232Z" transform="matrix(0.97, 0.244, -0.244, 0.97, 524.514, 289.643)" fill="#cbcd28"/>
      <path id="Path_11089" data-name="Path 11089" d="M0,10.8l11.128-.123L11.251,0,.123.123Z" transform="translate(474.05 282.464) rotate(14.115)" fill="#cbcd28"/>
      <path id="Path_11090" data-name="Path 11090" d="M0,45.521,46.927,45l.519-45L.519.519Z" transform="translate(406.636 248.194) rotate(14.157)" fill="#efeec0"/>
      <path id="Path_11091" data-name="Path 11091" d="M0,49.113l50.631-.56L51.191,0,.56.56Z" transform="translate(351.144 232.982) rotate(14.152)" fill="#f1df3f"/>
      <path id="Path_11092" data-name="Path 11092" d="M0,49.742l51.282-.567L51.849,0,.567.567Z" transform="translate(296.779 219.592) rotate(14.144)" fill="#f1df3f"/>
      <path id="Path_11093" data-name="Path 11093" d="M0,48.9l50.416-.557L50.974,0,.557.557Z" transform="translate(242.988 207.097) rotate(14.147)" fill="#f1df3f"/>
      <path id="Path_11094" data-name="Path 11094" d="M0,34.935l36.008-.4L36.406,0,.4.4Z" transform="translate(140.122 189.623) rotate(14.155)" fill="#cbcd28"/>
      <path id="Path_11095" data-name="Path 11095" d="M0,45.721,47.142,45.2,47.664,0,.521.521Z" transform="translate(81.862 170.007) rotate(14.149)" fill="#efeec0"/>
      <path id="Path_11096" data-name="Path 11096" d="M0,49.743l51.286-.567L51.853,0,.567.567Z" transform="matrix(0.97, 0.245, -0.245, 0.97, 26.213, 154.532)" fill="#f5d221"/>
      <path id="Path_11097" data-name="Path 11097" d="M0,46.778l47.475-.525L48.008,0,.534.525Z" transform="matrix(0.97, 0.245, -0.245, 0.97, 825.429, 403.109)" fill="#f1df3f"/>
      <path id="Path_11098" data-name="Path 11098" d="M0,44.878l46.268-.512L46.779,0,.512.512Z" transform="matrix(0.97, 0.244, -0.244, 0.97, 772.033, 391.257)" fill="#f1df3f"/>
      <path id="Path_11099" data-name="Path 11099" d="M0,30.274l31.212-.345L31.557,0,.345.345Z" transform="translate(723.523 387.187) rotate(14.164)" fill="#efeec0"/>
      <path id="Path_11100" data-name="Path 11100" d="M0,39.166l40.377-.446L40.823,0,.446.446Z" transform="translate(665.996 368.735) rotate(14.148)" fill="#cbcd28"/>
      <path id="Path_11101" data-name="Path 11101" d="M0,34.938l36.013-.4L36.412,0,.4.4Z" transform="matrix(0.97, 0.245, -0.245, 0.97, 613.505, 358.307)" fill="#cbcd28"/>
      <path id="Path_11102" data-name="Path 11102" d="M0,37.256l38.414-.425L38.839,0,.425.425Z" transform="translate(558.498 343.882) rotate(14.155)" fill="#efeec0"/>
      <path id="Path_11103" data-name="Path 11103" d="M0,44.66l46.053-.509L46.562,0,.509.509Z" transform="matrix(0.97, 0.245, -0.245, 0.97, 501.541, 326.337)" fill="#f5d221"/>
      <path id="Path_11104" data-name="Path 11104" d="M0,42.129l43.427-.481L43.907,0,.481.481Z" transform="matrix(0.97, 0.245, -0.245, 0.97, 448.409, 314.879)" fill="#efeec0"/>
      <path id="Path_11105" data-name="Path 11105" d="M0,41.492l42.772-.473L43.245,0,.473.473Z" transform="translate(394.528 302.26) rotate(14.147)" fill="#f1df3f"/>
      <path id="Path_11106" data-name="Path 11106" d="M0,33.23l34.261-.379L34.64,0,.379.379Z" transform="translate(343.58 294.305) rotate(14.15)" fill="#efeec0"/>
      <path id="Path_11107" data-name="Path 11107" d="M0,31.965,32.956,31.6,33.32,0,.364.364Z" transform="translate(289.945 282.071) rotate(14.143)" fill="#efeec0"/>
      <path id="Path_11108" data-name="Path 11108" d="M0,31.756l32.732-.362L33.094,0,.362.362Z" transform="translate(235.917 269.186) rotate(14.15)" fill="#efeec0"/>
      <path id="Path_11109" data-name="Path 11109" d="M0,42.129l43.426-.48L43.906,0,.481.48Z" transform="matrix(0.97, 0.245, -0.245, 0.97, 177.832, 249.824)" fill="#cbcd28"/>
      <path id="Path_11110" data-name="Path 11110" d="M0,47.84l49.32-.546L49.866,0,.545.545Z" transform="matrix(0.97, 0.245, -0.245, 0.97, 121.525, 233.316)" fill="#f5d221"/>
      <path id="Path_11111" data-name="Path 11111" d="M0,48.9l50.414-.557L50.972,0,.557.557Z" transform="translate(67.004 219.659) rotate(14.147)" fill="#f5d221"/>
      <path id="Path_11112" data-name="Path 11112" d="M0,50.388l51.951-.574L52.525,0,.574.574Z" transform="translate(12.319 205.736) rotate(14.151)" fill="#f5d221"/>
      <path id="Path_11113" data-name="Path 11113" d="M0,37.889l39.07-.432L39.5,0,.432.432Z" transform="matrix(0.97, 0.245, -0.245, 0.97, 815.184, 460.139)" fill="#f1df3f"/>
      <path id="Path_11114" data-name="Path 11114" d="M0,33.663l34.7-.384L35.086,0,.384.384Z" transform="translate(762.694 449.724) rotate(14.157)" fill="#f1df3f"/>
      <path id="Path_11115" data-name="Path 11115" d="M0,30.475l31.425-.348L31.772,0,.347.348Z" transform="translate(709.795 438.66) rotate(14.153)" fill="#f1df3f"/>
      <path id="Path_11116" data-name="Path 11116" d="M0,33.026l34.053-.377L34.43,0,.377.377Z" transform="translate(654.702 424.088) rotate(14.165)" fill="#f1df3f"/>
      <path id="Path_11117" data-name="Path 11117" d="M0,40.436l41.686-.461L42.146,0,.461.461Z" transform="translate(597.749 406.543) rotate(14.146)" fill="#f1df3f"/>
      <path id="Path_11118" data-name="Path 11118" d="M0,41.283l42.562-.47L43.032,0,.47.471Z" transform="translate(543.305 393.016) rotate(14.145)" fill="#f1df3f"/>
      <path id="Path_11119" data-name="Path 11119" d="M0,39.806l41.036-.454L41.49,0,.454.454Z" transform="matrix(0.97, 0.245, -0.245, 0.97, 489.762, 380.91)" fill="#cbcd28"/>
      <path id="Path_11120" data-name="Path 11120" d="M0,44.031l45.4-.5L45.9,0,.5.5Z" transform="translate(434.022 365.306) rotate(14.163)" fill="#cbcd28"/>
      <path id="Path_11121" data-name="Path 11121" d="M0,15.238l15.717-.174L15.89,0,.174.174Z" transform="matrix(0.97, 0.244, -0.244, 0.97, 390.936, 369.93)" fill="#f5d221"/>
      <path id="Path_11122" data-name="Path 11122" d="M0,14.187l14.619-.161L14.781,0,.161.161Z" transform="translate(337.228 357.566) rotate(14.107)" fill="#efeec0"/>
      <path id="Path_11123" data-name="Path 11123" d="M0,35.144l36.237-.4L36.637,0,.4.4Z" transform="matrix(0.97, 0.245, -0.245, 0.97, 275.085, 331.721)" fill="#f1df3f"/>
      <path id="Path_11124" data-name="Path 11124" d="M0,14.6l15.064-.167L15.231,0,.167.167Z" transform="translate(228.836 331.284) rotate(14.158)" fill="#cbcd28"/>
      <path id="Path_11125" data-name="Path 11125" d="M0,13.121l13.532-.15L13.682,0,.15.15Z" transform="translate(175.289 319.184) rotate(14.142)" fill="#cbcd28"/>
      <path id="Path_11126" data-name="Path 11126" d="M0,3.818l3.92-.044L3.964,0,.044.044Z" transform="translate(124.755 311.866) rotate(14.211)" fill="#cbcd28"/>
      <path id="Path_11127" data-name="Path 11127" d="M0,13.547l13.965-.154L14.119,0,.154.154Z" transform="translate(66.899 292.901) rotate(14.133)" fill="#cbcd28"/>
      <path id="Path_11128" data-name="Path 11128" d="M0,14.826l15.269-.169L15.438,0,.169.169Z" transform="translate(12.309 279.103) rotate(14.168)" fill="#cbcd28"/>
      <path id="Path_11129" data-name="Path 11129" d="M0,45.091l46.487-.514L47,0,.514.514Z" transform="translate(798.778 507.335) rotate(14.151)" fill="#cbcd28"/>
      <path id="Path_11130" data-name="Path 11130" d="M0,42.971l44.307-.49L44.8,0,.49.49Z" transform="matrix(0.97, 0.245, -0.245, 0.97, 745.477, 495.617)" fill="#f5d221"/>
      <path id="Path_11131" data-name="Path 11131" d="M0,48.91l50.413-.558L50.97,0,.558.558Z" transform="translate(689.095 478.972) rotate(14.153)" fill="#f5d221"/>
      <path id="Path_11132" data-name="Path 11132" d="M0,37.685l38.842-.43L39.272,0,.43.43Z" transform="matrix(0.97, 0.245, -0.245, 0.97, 639.28, 472.837)" fill="#efeec0"/>
      <path id="Path_11133" data-name="Path 11133" d="M0,37.048l38.195-.423L38.617,0,.423.423Z" transform="translate(585.4 460.216) rotate(14.157)" fill="#efeec0"/>
      <path id="Path_11134" data-name="Path 11134" d="M0,38.955l40.155-.444L40.6,0,.444.444Z" transform="matrix(0.97, 0.245, -0.245, 0.97, 530.562, 446.033)" fill="#efeec0"/>
      <path id="Path_11135" data-name="Path 11135" d="M0,51.409l49.882-.552L50.469,0,.587.552Z" transform="translate(782.693 555.076) rotate(14.155)" fill="#f5d221"/>
      <path id="Path_11136" data-name="Path 11136" d="M0,45.09l46.483-.514L47,0,.514.514Z" transform="translate(731.019 545.921) rotate(14.145)" fill="#efeec0"/>
      <path id="Path_11137" data-name="Path 11137" d="M0,38.315l39.509-.437L39.946,0,.437.437Z" transform="translate(679.498 537.057) rotate(14.153)" fill="#f1df3f"/>
      <path id="Path_11138" data-name="Path 11138" d="M0,44.038l45.4-.5L45.9,0,.5.5Z" transform="translate(623.193 520.544) rotate(14.157)" fill="#cbcd28"/>
      <path id="Path_11139" data-name="Path 11139" d="M0,50.355l49.337-.546L49.911,0,.574.546Z" transform="translate(769.451 607.317) rotate(14.153)" fill="#f5d221"/>
    </g>
    <g id="Group_7151" data-name="Group 7151" transform="translate(0 0)" opacity="0.4">
      <path id="Path_11140" data-name="Path 11140" d="M0,26.693l27.523-.3L27.827,0,.3.3Z" transform="matrix(0.97, 0.244, -0.244, 0.97, 778.55, 684.598)" fill="#cbcd28"/>
      <path id="Path_11141" data-name="Path 11141" d="M0,47.277l48.742-.539L49.281,0,.539.539Z" transform="translate(626.965 554.066) rotate(14.15)" fill="#efeec0"/>
      <path id="Path_11142" data-name="Path 11142" d="M0,63.674l65.657-.726L66.383,0,.726.726Z" transform="translate(702.899 563.789) rotate(14.157)" fill="#efeec0"/>
      <path id="Path_11143" data-name="Path 11143" d="M0,61l53.509-.592L54.206,0,.7.592Z" transform="matrix(0.97, 0.245, -0.245, 0.97, 786.071, 585.231)" fill="#cbcd28"/>
      <path id="Path_11144" data-name="Path 11144" d="M0,12.864l13.263-.147L13.409,0,.147.147Z" transform="translate(3.148 338.607) rotate(14.164)" fill="#f5d221"/>
      <path id="Path_11145" data-name="Path 11145" d="M0,15.12l15.579-.173L15.752,0,.173.173Z" transform="matrix(0.969, 0.245, -0.245, 0.969, 84.514, 356.99)" fill="#f5d221"/>
      <path id="Path_11146" data-name="Path 11146" d="M0,12.864l13.26-.147L13.407,0,.147.147Z" transform="translate(167.58 378.141) rotate(14.142)" fill="#f5d221"/>
      <path id="Path_11147" data-name="Path 11147" d="M0,30.559l31.5-.348L31.85,0,.348.348Z" transform="translate(243.018 387.073) rotate(14.149)" fill="#f5d221"/>
      <path id="Path_11148" data-name="Path 11148" d="M0,30.872l31.834-.352L32.186,0,.352.352Z" transform="translate(325.11 406.648) rotate(14.149)" fill="#f5d221"/>
      <path id="Path_11149" data-name="Path 11149" d="M0,16.407l16.906-.187L17.093,0,.187.187Z" transform="translate(412.874 435.277) rotate(14.125)" fill="#f5d221"/>
      <path id="Path_11150" data-name="Path 11150" d="M0,69.15l71.289-.789L72.078,0,.789.789Z" transform="translate(474.886 422.746) rotate(14.157)" fill="#f5d221"/>
      <path id="Path_11151" data-name="Path 11151" d="M0,74.614l76.917-.851L77.768,0,.851.851Z" transform="translate(555.009 439.17) rotate(14.15)" fill="#cbcd28"/>
      <path id="Path_11152" data-name="Path 11152" d="M0,75.585l77.918-.862L78.78,0,.862.862Z" transform="translate(636.857 458.34) rotate(14.154)" fill="#cbcd28"/>
      <path id="Path_11153" data-name="Path 11153" d="M0,74.3l76.6-.847L77.448,0,.847.847Z" transform="matrix(0.97, 0.245, -0.245, 0.97, 719.562, 478.891)" fill="#cbcd28"/>
      <path id="Path_11154" data-name="Path 11154" d="M0,76.038l61.292-.678L62.161,0,.869.678Z" transform="translate(800.995 497.671) rotate(14.151)" fill="#f1df3f"/>
      <path id="Path_11155" data-name="Path 11155" d="M0,45.942l42.549-.471L43.074,0,.525.471Z" transform="translate(15.912 241.119) rotate(14.157)" fill="#cbcd28"/>
      <path id="Path_11156" data-name="Path 11156" d="M0,59.5l61.351-.678L62.03,0,.678.678Z" transform="matrix(0.97, 0.244, -0.244, 0.97, 88.227, 251.431)" fill="#cbcd28"/>
      <path id="Path_11157" data-name="Path 11157" d="M0,53.07l54.714-.605L55.319,0,.605.605Z" transform="translate(172.907 275.133) rotate(14.15)" fill="#cbcd28"/>
      <path id="Path_11158" data-name="Path 11158" d="M0,56.6l58.365-.646L59.011,0,.645.646Z" transform="translate(253.769 292.734) rotate(14.155)" fill="#cbcd28"/>
      <path id="Path_11159" data-name="Path 11159" d="M0,67.859l69.963-.774L70.737,0,.774.774Z" transform="translate(331.675 305.613) rotate(14.15)" fill="#cbcd28"/>
      <path id="Path_11160" data-name="Path 11160" d="M0,64l65.99-.73L66.72,0,.73.73Z" transform="matrix(0.97, 0.245, -0.245, 0.97, 415.367, 327.738)" fill="#cbcd28"/>
      <path id="Path_11161" data-name="Path 11161" d="M0,63.042l64.994-.719L65.712,0,.719.719Z" transform="matrix(0.97, 0.244, -0.244, 0.97, 497.954, 348.098)" fill="#cbcd28"/>
      <path id="Path_11162" data-name="Path 11162" d="M0,50.49l52.052-.576L52.628,0,.576.576Z" transform="matrix(0.97, 0.244, -0.244, 0.97, 584.98, 375.551)" fill="#f1df3f"/>
      <path id="Path_11163" data-name="Path 11163" d="M0,48.565l50.066-.554L50.619,0,.554.554Z" transform="translate(667.939 396.492) rotate(14.151)" fill="#f1df3f"/>
      <path id="Path_11164" data-name="Path 11164" d="M0,48.244l49.739-.55L50.289,0,.55.55Z" transform="matrix(0.97, 0.244, -0.244, 0.97, 750.273, 416.456)" fill="#f1df3f"/>
      <path id="Path_11165" data-name="Path 11165" d="M0,63.879l55-.608L55.726,0,.73.608Z" transform="translate(826.424 426.695) rotate(14.151)" fill="#efeec0"/>
      <path id="Path_11166" data-name="Path 11166" d="M0,46.265l42.712-.472L43.241,0,.528.472Z" transform="matrix(0.97, 0.245, -0.245, 0.97, 36.679, 162.565)" fill="#cbcd28"/>
      <path id="Path_11167" data-name="Path 11167" d="M0,50.181l51.73-.572L52.3,0,.572.572Z" transform="translate(112.538 178.743) rotate(14.154)" fill="#efeec0"/>
      <path id="Path_11168" data-name="Path 11168" d="M0,61.433l63.328-.7L64.028,0,.7.7Z" transform="translate(190.437 191.622) rotate(14.149)" fill="#f1df3f"/>
      <path id="Path_11169" data-name="Path 11169" d="M0,62.714,64.666,62l.715-62L.715.715Z" transform="translate(272.156 210.604) rotate(14.15)" fill="#f1df3f"/>
      <path id="Path_11170" data-name="Path 11170" d="M0,60.47l62.337-.69L63.027,0,.69.69Z" transform="translate(355.247 231.742) rotate(14.155)" fill="#f5d221"/>
      <path id="Path_11171" data-name="Path 11171" d="M0,66.9l68.964-.763L69.727,0,.763.763Z" transform="translate(434.995 247.575) rotate(14.149)" fill="#f5d221"/>
      <path id="Path_11172" data-name="Path 11172" d="M0,23.157l23.876-.264L24.14,0,.264.264Z" transform="matrix(0.97, 0.245, -0.245, 0.97, 533.968, 294.118)" fill="#f5d221"/>
      <path id="Path_11173" data-name="Path 11173" d="M0,21.548,22.212,21.3,22.458,0,.246.246Z" transform="translate(616.802 314.875) rotate(14.152)" fill="#f5d221"/>
      <path id="Path_11174" data-name="Path 11174" d="M0,53.395l55.037-.609L55.646,0,.609.609Z" transform="translate(686.821 315.143) rotate(14.149)" fill="#f5d221"/>
      <path id="Path_11175" data-name="Path 11175" d="M0,22.2l22.887-.253L23.14,0,.253.253Z" transform="translate(780.99 354.008) rotate(14.151)" fill="#f5d221"/>
      <path id="Path_11176" data-name="Path 11176" d="M0,19.945l20.553-.227L20.78,0,.227.227Z" transform="translate(864.071 375.16) rotate(14.158)" fill="#f5d221"/>
      <path id="Path_11177" data-name="Path 11177" d="M0,74.088l57.143-.632L57.99,0,.847.632Z" transform="translate(60.677 70.567) rotate(14.156)" fill="#efeec0"/>
      <path id="Path_11178" data-name="Path 11178" d="M0,57.248,59.03,56.6,59.682,0,.652.653Z" transform="matrix(0.97, 0.244, -0.244, 0.97, 130.549, 96.026)" fill="#f5d221"/>
      <path id="Path_11179" data-name="Path 11179" d="M0,56.291l58.027-.642L58.669,0,.642.642Z" transform="matrix(0.97, 0.244, -0.244, 0.97, 213.141, 116.377)" fill="#f5d221"/>
      <path id="Path_11180" data-name="Path 11180" d="M0,59.185l61.016-.675L61.691,0,.675.675Z" transform="matrix(0.97, 0.245, -0.245, 0.97, 294.248, 134.37)" fill="#f5d221"/>
      <path id="Path_11181" data-name="Path 11181" d="M0,58.095l48.847-.54L49.511,0,.664.54Z" transform="matrix(0.97, 0.245, -0.245, 0.97, 79.535, 0)" fill="#f1df3f"/>
      <path id="Path_11182" data-name="Path 11182" d="M0,66.9l68.963-.763L69.726,0,.763.763Z" transform="translate(147.595 11.723) rotate(14.154)" fill="#f5d221"/>
    </g>
  </g>
</svg>
