<svg xmlns="http://www.w3.org/2000/svg" width="951.718" height="510.907" viewBox="0 0 951.718 510.907">
  <g id="mosaic" transform="translate(556.566 -574.839) rotate(43)">
    <g id="Group_7150" data-name="Group 7150" transform="translate(123.109 322.003)">
      <path id="Path_11071" data-name="Path 11071" d="M.872.873,46.033,0l-.872,48.394L0,49.266Z" transform="matrix(0.97, -0.244, 0.244, 0.97, 48.713, 619.223)" fill="#f5d221"/>
      <path id="Path_11072" data-name="Path 11072" d="M.311.311,16.392,0l-.311,17.243L0,17.554Z" transform="translate(198.008 540.346) rotate(-14.154)" fill="#cbcd28"/>
      <path id="Path_11073" data-name="Path 11073" d="M.835.835,44.055,0,43.22,46.318,0,47.153Z" transform="translate(133.289 542.383) rotate(-14.143)" fill="#cbcd28"/>
      <path id="Path_11074" data-name="Path 11074" d="M.809.809,42.672,0l-.809,44.876L0,45.685Z" transform="matrix(0.97, -0.245, 0.245, 0.97, 86.443, 555.942)" fill="#f1df3f"/>
      <path id="Path_11075" data-name="Path 11075" d="M.847.847,44.652,0l-.847,46.949L0,47.8Z" transform="matrix(0.97, -0.244, 0.244, 0.97, 37.536, 568.17)" fill="#efeec0"/>
      <path id="Path_11076" data-name="Path 11076" d="M.551.551,29.044,0l-.551,30.538L0,31.089Z" transform="translate(273.568 457.716) rotate(-14.166)" fill="#cbcd28"/>
      <path id="Path_11077" data-name="Path 11077" d="M.742.742,39.113,0l-.742,41.135L0,41.877Z" transform="matrix(0.97, -0.245, 0.245, 0.97, 219.683, 466.721)" fill="#efeec0"/>
      <path id="Path_11078" data-name="Path 11078" d="M.712.712,37.535,0l-.712,39.464L0,40.176Z" transform="translate(172.957 480.37) rotate(-14.164)" fill="#f5d221"/>
      <path id="Path_11079" data-name="Path 11079" d="M.914.914,48.206,0l-.914,50.684L0,51.6Z" transform="translate(118.701 489.14) rotate(-14.155)" fill="#f5d221"/>
      <path id="Path_11080" data-name="Path 11080" d="M.679.678,35.76,0l-.679,37.6L0,38.281Z" transform="matrix(0.97, -0.245, 0.245, 0.97, 78.672, 507.09)" fill="#cbcd28"/>
      <path id="Path_11081" data-name="Path 11081" d="M.82.82,43.265,0l-.82,45.492L0,46.312Z" transform="translate(26.363 517.123) rotate(-14.154)" fill="#efeec0"/>
      <path id="Path_11082" data-name="Path 11082" d="M.85.826,43.6,0l-.85,47.16L0,47.986Z" transform="translate(728.73 269.761) rotate(-14.148)" fill="#f5d221"/>
      <path id="Path_11083" data-name="Path 11083" d="M.356.356,18.774,0l-.356,19.733L0,20.089Z" transform="translate(697.086 293.096) rotate(-14.146)" fill="#cbcd28"/>
      <path id="Path_11084" data-name="Path 11084" d="M.15.15,7.9,0l-.15,8.31L0,8.459Z" transform="translate(656.091 310.416) rotate(-14.154)" fill="#cbcd28"/>
      <path id="Path_11085" data-name="Path 11085" d="M.175.175,9.288,0,9.113,9.763,0,9.938Z" transform="translate(607.55 322.873) rotate(-14.089)" fill="#cbcd28"/>
      <path id="Path_11086" data-name="Path 11086" d="M.15.15,7.9,0l-.15,8.309L0,8.459Z" transform="matrix(0.969, -0.245, 0.245, 0.969, 560.707, 336.441)" fill="#cbcd28"/>
      <path id="Path_11087" data-name="Path 11087" d="M.356.356,18.77,0l-.356,19.731L0,20.087Z" transform="translate(506.33 345.136) rotate(-14.146)" fill="#cbcd28"/>
      <path id="Path_11088" data-name="Path 11088" d="M.359.359,18.968,0l-.359,19.94L0,20.3Z" transform="matrix(0.97, -0.244, 0.244, 0.97, 458.518, 358.07)" fill="#cbcd28"/>
      <path id="Path_11089" data-name="Path 11089" d="M.191.191,10.073,0,9.882,10.6,0,10.792Z" transform="translate(416.302 374.599) rotate(-14.115)" fill="#cbcd28"/>
      <path id="Path_11090" data-name="Path 11090" d="M.806.806,42.481,0l-.806,44.668L0,45.473Z" transform="translate(348.654 374.762) rotate(-14.157)" fill="#efeec0"/>
      <path id="Path_11091" data-name="Path 11091" d="M.869.869,45.833,0l-.869,48.193L0,49.062Z" transform="translate(298.903 386.443) rotate(-14.152)" fill="#f1df3f"/>
      <path id="Path_11092" data-name="Path 11092" d="M.88.88,46.422,0l-.88,48.81L0,49.69Z" transform="translate(250.849 399.214) rotate(-14.144)" fill="#f1df3f"/>
      <path id="Path_11093" data-name="Path 11093" d="M.865.865,45.638,0l-.865,47.982L0,48.847Z" transform="translate(203.641 412.539) rotate(-14.147)" fill="#f1df3f"/>
      <path id="Path_11094" data-name="Path 11094" d="M.618.618,32.6,0l-.618,34.28L0,34.9Z" transform="translate(116.29 443.732) rotate(-14.155)" fill="#cbcd28"/>
      <path id="Path_11095" data-name="Path 11095" d="M.809.809,42.675,0l-.809,44.864L0,45.673Z" transform="translate(62.394 452.751) rotate(-14.149)" fill="#efeec0"/>
      <path id="Path_11096" data-name="Path 11096" d="M.881.881,46.426,0l-.881,48.811L0,49.691Z" transform="translate(12.39 464.275) rotate(-14.16)" fill="#f5d221"/>
      <path id="Path_11097" data-name="Path 11097" d="M.828.815,42.989,0l-.828,45.91L0,46.725Z" transform="translate(717.434 218.624) rotate(-14.157)" fill="#f1df3f"/>
      <path id="Path_11098" data-name="Path 11098" d="M.794.794,41.883,0l-.794,44.038L0,44.831Z" transform="translate(670.831 232.328) rotate(-14.148)" fill="#f1df3f"/>
      <path id="Path_11099" data-name="Path 11099" d="M.536.536,28.255,0l-.536,29.706L0,30.242Z" transform="matrix(0.97, -0.245, 0.245, 0.97, 631.533, 250.749)" fill="#efeec0"/>
      <path id="Path_11100" data-name="Path 11100" d="M.693.693,36.55,0l-.693,38.432L0,39.125Z" transform="translate(578.736 260.462) rotate(-14.148)" fill="#cbcd28"/>
      <path id="Path_11101" data-name="Path 11101" d="M.619.619,32.6,0l-.619,34.283L0,34.9Z" transform="translate(533.471 275.046) rotate(-14.162)" fill="#cbcd28"/>
      <path id="Path_11102" data-name="Path 11102" d="M.659.659,34.774,0l-.659,36.558L0,37.217Z" transform="translate(484.448 287.193) rotate(-14.155)" fill="#efeec0"/>
      <path id="Path_11103" data-name="Path 11103" d="M.79.791,41.689,0,40.9,43.823,0,44.613Z" transform="translate(432.498 297.464) rotate(-14.155)" fill="#f5d221"/>
      <path id="Path_11104" data-name="Path 11104" d="M.746.746,39.312,0l-.746,41.339L0,42.085Z" transform="matrix(0.97, -0.245, 0.245, 0.97, 386.27, 311.409)" fill="#efeec0"/>
      <path id="Path_11105" data-name="Path 11105" d="M.734.734,38.719,0l-.734,40.715L0,41.449Z" transform="translate(338.945 324.652) rotate(-14.147)" fill="#f1df3f"/>
      <path id="Path_11106" data-name="Path 11106" d="M.588.588,31.014,0l-.588,32.607L0,33.2Z" transform="translate(296.001 340.725) rotate(-14.15)" fill="#efeec0"/>
      <path id="Path_11107" data-name="Path 11107" d="M.565.565,29.832,0l-.565,31.367L0,31.932Z" transform="translate(249.037 354.2) rotate(-14.143)" fill="#efeec0"/>
      <path id="Path_11108" data-name="Path 11108" d="M.562.562,29.63,0l-.562,31.161L0,31.723Z" transform="matrix(0.97, -0.244, 0.244, 0.97, 201.469, 367.292)" fill="#efeec0"/>
      <path id="Path_11109" data-name="Path 11109" d="M.746.746,39.311,0l-.746,41.339L0,42.085Z" transform="matrix(0.97, -0.245, 0.245, 0.97, 147.815, 376.465)" fill="#cbcd28"/>
      <path id="Path_11110" data-name="Path 11110" d="M.847.847,44.646,0,43.8,46.943,0,47.79Z" transform="matrix(0.97, -0.245, 0.245, 0.97, 96.844, 387.36)" fill="#f5d221"/>
      <path id="Path_11111" data-name="Path 11111" d="M.865.865,45.636,0l-.865,47.984L0,48.849Z" transform="translate(48.549 399.974) rotate(-14.147)" fill="#f5d221"/>
      <path id="Path_11112" data-name="Path 11112" d="M.892.892,47.027,0l-.892,49.444L0,50.335Z" transform="translate(0 412.437) rotate(-14.151)" fill="#f5d221"/>
      <path id="Path_11113" data-name="Path 11113" d="M.671.671,35.368,0,34.7,37.179,0,37.85Z" transform="translate(710.508 170.314) rotate(-14.161)" fill="#f1df3f"/>
      <path id="Path_11114" data-name="Path 11114" d="M.6.6,31.414,0l-.6,33.032L0,33.628Z" transform="translate(665.253 184.881) rotate(-14.157)" fill="#f1df3f"/>
      <path id="Path_11115" data-name="Path 11115" d="M.539.539,28.447,0l-.539,29.9L0,30.443Z" transform="matrix(0.97, -0.245, 0.245, 0.97, 619.392, 199.077)" fill="#f1df3f"/>
      <path id="Path_11116" data-name="Path 11116" d="M.585.585,30.827,0l-.585,32.406L0,32.991Z" transform="translate(570.228 211.145) rotate(-14.165)" fill="#f1df3f"/>
      <path id="Path_11117" data-name="Path 11117" d="M.715.715,37.735,0l-.715,39.679L0,40.394Z" transform="translate(518.292 221.406) rotate(-14.146)" fill="#f1df3f"/>
      <path id="Path_11118" data-name="Path 11118" d="M.73.73,38.528,0,37.8,40.51,0,41.24Z" transform="matrix(0.97, -0.244, 0.244, 0.97, 470.111, 234.101)" fill="#f1df3f"/>
      <path id="Path_11119" data-name="Path 11119" d="M.7.7,37.147,0l-.7,39.06L0,39.764Z" transform="translate(423.269 247.66) rotate(-14.152)" fill="#cbcd28"/>
      <path id="Path_11120" data-name="Path 11120" d="M.78.78,41.1,0l-.78,43.205L0,43.985Z" transform="matrix(0.97, -0.245, 0.245, 0.97, 373.138, 259.114)" fill="#cbcd28"/>
      <path id="Path_11121" data-name="Path 11121" d="M.269.27,14.227,0l-.269,14.952L0,15.222Z" transform="translate(342 282.777) rotate(-14.144)" fill="#f5d221"/>
      <path id="Path_11122" data-name="Path 11122" d="M.25.25,13.233,0l-.25,13.923L0,14.173Z" transform="translate(294.925 296.171) rotate(-14.107)" fill="#efeec0"/>
      <path id="Path_11123" data-name="Path 11123" d="M.622.622,32.8,0l-.622,34.485L0,35.108Z" transform="translate(235.182 301.429) rotate(-14.154)" fill="#f1df3f"/>
      <path id="Path_11124" data-name="Path 11124" d="M.259.259,13.637,0l-.259,14.331L0,14.59Z" transform="translate(199.29 322.045) rotate(-14.158)" fill="#cbcd28"/>
      <path id="Path_11125" data-name="Path 11125" d="M.232.232,12.249,0l-.232,12.875L0,13.107Z" transform="matrix(0.97, -0.244, 0.244, 0.97, 152.455, 335.602)" fill="#cbcd28"/>
      <path id="Path_11126" data-name="Path 11126" d="M.068.068,3.549,0,3.482,3.746,0,3.814Z" transform="translate(110.118 352.062) rotate(-14.211)" fill="#cbcd28"/>
      <path id="Path_11127" data-name="Path 11127" d="M.239.239,12.641,0,12.4,13.294,0,13.533Z" transform="translate(56.834 361.466) rotate(-14.133)" fill="#cbcd28"/>
      <path id="Path_11128" data-name="Path 11128" d="M.263.262,13.823,0,13.56,14.548,0,14.81Z" transform="matrix(0.97, -0.245, 0.245, 0.97, 8.413, 374.01)" fill="#cbcd28"/>
      <path id="Path_11129" data-name="Path 11129" d="M.8.8,42.081,0l-.8,44.246L0,45.044Z" transform="translate(694.349 116.042) rotate(-14.151)" fill="#cbcd28"/>
      <path id="Path_11130" data-name="Path 11130" d="M.761.761,40.108,0l-.761,42.165L0,42.926Z" transform="matrix(0.97, -0.245, 0.245, 0.97, 647.872, 129.843)" fill="#f5d221"/>
      <path id="Path_11131" data-name="Path 11131" d="M.866.865,45.636,0,44.77,47.993,0,48.859Z" transform="matrix(0.97, -0.245, 0.245, 0.97, 596.781, 140.653)" fill="#f5d221"/>
      <path id="Path_11132" data-name="Path 11132" d="M.667.667,35.162,0l-.667,36.979L0,37.646Z" transform="translate(555.535 157.817) rotate(-14.16)" fill="#efeec0"/>
      <path id="Path_11133" data-name="Path 11133" d="M.656.656,34.575,0,33.92,36.354,0,37.009Z" transform="translate(508.204 171.063) rotate(-14.157)" fill="#efeec0"/>
      <path id="Path_11134" data-name="Path 11134" d="M.69.69,36.35,0l-.69,38.224L0,38.914Z" transform="matrix(0.97, -0.245, 0.245, 0.97, 459.424, 183.374)" fill="#efeec0"/>
      <path id="Path_11135" data-name="Path 11135" d="M.91.856,45.209,0,44.3,50.48,0,51.336Z" transform="matrix(0.97, -0.245, 0.245, 0.97, 678.686, 62.146)" fill="#f5d221"/>
      <path id="Path_11136" data-name="Path 11136" d="M.8.8,42.077,0l-.8,44.245L0,45.043Z" transform="translate(634.639 77.456) rotate(-14.145)" fill="#efeec0"/>
      <path id="Path_11137" data-name="Path 11137" d="M.678.678,35.765,0l-.678,37.6L0,38.275Z" transform="matrix(0.97, -0.245, 0.245, 0.97, 590.834, 92.977)" fill="#f1df3f"/>
      <path id="Path_11138" data-name="Path 11138" d="M.779.779,41.1,0l-.779,43.212L0,43.992Z" transform="translate(539.854 103.868) rotate(-14.157)" fill="#cbcd28"/>
      <path id="Path_11139" data-name="Path 11139" d="M.892.847,44.706,0l-.892,49.44L0,50.286Z" transform="matrix(0.97, -0.245, 0.245, 0.97, 667.266, 10.931)" fill="#f5d221"/>
    </g>
    <g id="Group_7151" data-name="Group 7151" transform="translate(121.964 306.595)" opacity="0.4">
      <path id="Path_11140" data-name="Path 11140" d="M.472.472,24.914,0l-.472,26.194L0,26.665Z" transform="matrix(0.97, -0.244, 0.244, 0.97, 680.082, 6.085)" fill="#cbcd28"/>
      <path id="Path_11141" data-name="Path 11141" d="M.836.836,44.122,0l-.836,46.392L0,47.228Z" transform="translate(541.61 116.394) rotate(-14.15)" fill="#efeec0"/>
      <path id="Path_11142" data-name="Path 11142" d="M1.127,1.127,59.435,0,58.308,62.48,0,63.607Z" transform="translate(604.637 90.563) rotate(-14.157)" fill="#efeec0"/>
      <path id="Path_11143" data-name="Path 11143" d="M1.081.918,48.6,0,47.52,59.965,0,60.883Z" transform="translate(678.61 71.899) rotate(-14.153)" fill="#cbcd28"/>
      <path id="Path_11144" data-name="Path 11144" d="M.228.228,12.006,0l-.228,12.623L0,12.851Z" transform="translate(0 365.665) rotate(-14.164)" fill="#f5d221"/>
      <path id="Path_11145" data-name="Path 11145" d="M.268.268,14.1,0l-.268,14.836L0,15.1Z" transform="matrix(0.969, -0.245, 0.245, 0.969, 71.165, 345.067)" fill="#f5d221"/>
      <path id="Path_11146" data-name="Path 11146" d="M.227.227,12,0l-.227,12.624L0,12.851Z" transform="matrix(0.97, -0.244, 0.244, 0.97, 144.916, 326.129)" fill="#f5d221"/>
      <path id="Path_11147" data-name="Path 11147" d="M.541.541,28.516,0l-.541,29.987L0,30.527Z" transform="matrix(0.97, -0.244, 0.244, 0.97, 207.205, 299.812)" fill="#f5d221"/>
      <path id="Path_11148" data-name="Path 11148" d="M.546.546,28.817,0l-.546,30.293L0,30.84Z" transform="translate(279.477 279.93) rotate(-14.149)" fill="#f5d221"/>
      <path id="Path_11149" data-name="Path 11149" d="M.29.29,15.3,0l-.29,16.1L0,16.39Z" transform="translate(360.255 265.512) rotate(-14.125)" fill="#f5d221"/>
      <path id="Path_11150" data-name="Path 11150" d="M1.224,1.224,64.534,0,63.31,67.854,0,69.078Z" transform="translate(402.395 226.226) rotate(-14.157)" fill="#f5d221"/>
      <path id="Path_11151" data-name="Path 11151" d="M1.32,1.32,69.628,0l-1.32,73.217L0,74.537Z" transform="matrix(0.97, -0.244, 0.244, 0.97, 471.719, 204.433)" fill="#cbcd28"/>
      <path id="Path_11152" data-name="Path 11152" d="M1.338,1.338,70.535,0,69.2,74.168,0,75.506Z" transform="translate(543.615 184.31) rotate(-14.154)" fill="#cbcd28"/>
      <path id="Path_11153" data-name="Path 11153" d="M1.315,1.315,69.341,0,68.027,72.909,0,74.224Z" transform="translate(616.807 165.02) rotate(-14.154)" fill="#cbcd28"/>
      <path id="Path_11154" data-name="Path 11154" d="M1.349,1.052,55.78,0,54.432,74.8,0,75.853Z" transform="translate(688.233 144.819) rotate(-14.151)" fill="#f1df3f"/>
      <path id="Path_11155" data-name="Path 11155" d="M.814.731,38.6,0l-.814,45.133L0,45.864Z" transform="translate(3.429 430.736) rotate(-14.157)" fill="#cbcd28"/>
      <path id="Path_11156" data-name="Path 11156" d="M1.053,1.053,55.537,0,54.484,58.386,0,59.439Z" transform="translate(63.935 407.019) rotate(-14.148)" fill="#cbcd28"/>
      <path id="Path_11157" data-name="Path 11157" d="M.939.939,49.528,0l-.939,52.076L0,53.015Z" transform="translate(140.083 389.636) rotate(-14.15)" fill="#cbcd28"/>
      <path id="Path_11158" data-name="Path 11158" d="M1,1,52.834,0l-1,55.542L0,56.544Z" transform="matrix(0.97, -0.245, 0.245, 0.97, 210.504, 368.565)" fill="#cbcd28"/>
      <path id="Path_11159" data-name="Path 11159" d="M1.2,1.2,63.333,0l-1.2,66.587L0,67.788Z" transform="translate(276.5 344.626) rotate(-14.15)" fill="#cbcd28"/>
      <path id="Path_11160" data-name="Path 11160" d="M1.133,1.133,59.737,0,58.6,62.805,0,63.938Z" transform="matrix(0.97, -0.245, 0.245, 0.97, 351.166, 326.289)" fill="#cbcd28"/>
      <path id="Path_11161" data-name="Path 11161" d="M1.115,1.115,58.834,0,57.719,61.861,0,62.976Z" transform="translate(424.178 306.874) rotate(-14.151)" fill="#cbcd28"/>
      <path id="Path_11162" data-name="Path 11162" d="M.893.893,47.119,0l-.893,49.544L0,50.437Z" transform="translate(503.847 291.753) rotate(-14.151)" fill="#f1df3f"/>
      <path id="Path_11163" data-name="Path 11163" d="M.859.859,45.321,0l-.859,47.655L0,48.514Z" transform="translate(577.414 272.704) rotate(-14.151)" fill="#f1df3f"/>
      <path id="Path_11164" data-name="Path 11164" d="M.853.854,45.025,0l-.853,47.34L0,48.194Z" transform="translate(650.052 253.055) rotate(-14.149)" fill="#f1df3f"/>
      <path id="Path_11165" data-name="Path 11165" d="M1.132.944,49.973,0,48.84,62.8,0,63.745Z" transform="matrix(0.97, -0.244, 0.244, 0.97, 713.499, 227.636)" fill="#efeec0"/>
      <path id="Path_11166" data-name="Path 11166" d="M.82.733,38.751,0l-.82,45.453L0,46.186Z" transform="translate(21.658 508.974) rotate(-14.153)" fill="#cbcd28"/>
      <path id="Path_11167" data-name="Path 11167" d="M.888.888,46.828,0,45.94,49.24,0,50.128Z" transform="translate(87.563 488.866) rotate(-14.154)" fill="#efeec0"/>
      <path id="Path_11168" data-name="Path 11168" d="M1.087,1.087,57.326,0,56.239,60.283,0,61.369Z" transform="matrix(0.97, -0.244, 0.244, 0.97, 153.552, 464.93)" fill="#f1df3f"/>
      <path id="Path_11169" data-name="Path 11169" d="M1.11,1.11,58.537,0l-1.11,61.539L0,62.648Z" transform="translate(225.265 444.69) rotate(-14.15)" fill="#f1df3f"/>
      <path id="Path_11170" data-name="Path 11170" d="M1.07,1.07,56.43,0,55.36,59.337,0,60.407Z" transform="translate(299.018 425.758) rotate(-14.155)" fill="#f5d221"/>
      <path id="Path_11171" data-name="Path 11171" d="M1.184,1.183,62.429,0,61.245,65.651,0,66.834Z" transform="matrix(0.97, -0.244, 0.244, 0.97, 367.782, 403.603)" fill="#f5d221"/>
      <path id="Path_11172" data-name="Path 11172" d="M.41.41,21.614,0,21.2,22.723,0,23.133Z" transform="translate(465.364 400.041) rotate(-14.16)" fill="#f5d221"/>
      <path id="Path_11173" data-name="Path 11173" d="M.381.381,20.107,0l-.381,21.144L0,21.526Z" transform="translate(538.749 380.864) rotate(-14.152)" fill="#f5d221"/>
      <path id="Path_11174" data-name="Path 11174" d="M.945.944,49.821,0l-.945,52.395L0,53.339Z" transform="translate(592.912 349.307) rotate(-14.149)" fill="#f5d221"/>
      <path id="Path_11175" data-name="Path 11175" d="M.393.393,20.718,0l-.393,21.787L0,22.179Z" transform="translate(683.29 341.088) rotate(-14.151)" fill="#f5d221"/>
      <path id="Path_11176" data-name="Path 11176" d="M.353.353,18.605,0l-.353,19.571L0,19.924Z" transform="translate(757.041 322.155) rotate(-14.158)" fill="#f5d221"/>
      <path id="Path_11177" data-name="Path 11177" d="M1.315.981,52.062,0,50.747,72.911,0,73.892Z" transform="matrix(0.97, -0.245, 0.245, 0.97, 36.267, 573.875)" fill="#efeec0"/>
      <path id="Path_11178" data-name="Path 11178" d="M1.013,1.013,53.435,0,52.422,56.176,0,57.189Z" transform="translate(101.768 564.637) rotate(-14.146)" fill="#f5d221"/>
      <path id="Path_11179" data-name="Path 11179" d="M1,1,52.528,0l-1,55.236L0,56.232Z" transform="translate(174.778 545.228) rotate(-14.151)" fill="#f5d221"/>
      <path id="Path_11180" data-name="Path 11180" d="M1.048,1.048,55.234,0,54.187,58.076,0,59.123Z" transform="matrix(0.97, -0.245, 0.245, 0.97, 245.565, 524.393)" fill="#f5d221"/>
      <path id="Path_11181" data-name="Path 11181" d="M1.031.839,44.411,0,43.38,57.127,0,57.966Z" transform="translate(56.641 660.019) rotate(-14.159)" fill="#f1df3f"/>
      <path id="Path_11182" data-name="Path 11182" d="M1.184,1.184,62.428,0,61.244,65.643,0,66.827Z" transform="translate(114.496 639.462) rotate(-14.154)" fill="#f5d221"/>
    </g>
  </g>
</svg>
