<svg xmlns="http://www.w3.org/2000/svg" xmlns:xlink="http://www.w3.org/1999/xlink" width="235.789" height="46.596" viewBox="0 0 235.789 46.596">
  <defs>
    <filter id="Path_11190" x="0" y="0.041" width="232.904" height="46.555" filterUnits="userSpaceOnUse">
      <feOffset dy="3" input="SourceAlpha"/>
      <feGaussianBlur stdDeviation="1.5" result="blur"/>
      <feFlood flood-color="#eff5cc"/>
      <feComposite operator="in" in2="blur"/>
      <feComposite in="SourceGraphic"/>
    </filter>
    <filter id="Path_11183" x="185.323" y="0" width="39.8" height="44.416" filterUnits="userSpaceOnUse">
      <feOffset dy="3" input="SourceAlpha"/>
      <feGaussianBlur stdDeviation="3" result="blur-2"/>
      <feFlood flood-color="#9f9fa0" flood-opacity="0.392"/>
      <feComposite operator="in" in2="blur-2"/>
      <feComposite in="SourceGraphic"/>
    </filter>
  </defs>
  <g id="Group_7157" data-name="Group 7157" transform="translate(-127.368 -279.736)">
    <g id="Group_7161" data-name="Group 7161" transform="translate(1 5)">
      <g transform="matrix(1, 0, 0, 1, 126.37, 274.74)" filter="url(#Path_11190)">
        <path id="Path_11190-2" data-name="Path 11190" d="M206.074,313.332V276.776H-16.507L2.479,313.332h203.6" transform="translate(21.83 -274.74)" fill="#fff" stroke="#eff5cc" stroke-width="1"/>
      </g>
      <path id="Path_11191" data-name="Path 11191" d="M100.668,276.776l19.048,36.555h47.439V276.776Z" transform="translate(195.002 0)" fill="#f5d22f"/>
    </g>
    <text id="極楽IDで連携ログイン" transform="translate(163 305.554)" fill="#5a5757" font-size="13" font-family="SourceHanSansJP-Medium, Source Han Sans JP" font-weight="500" style="isolation: isolate"><tspan x="0" y="0">極楽IDで連携ログイン</tspan></text>
    <g transform="matrix(1, 0, 0, 1, 127.37, 279.74)" filter="url(#Path_11183)">
      <path id="Path_11183-2" data-name="Path 11183" d="M1507.588,440.211a17.57,17.57,0,0,1,4.114-2.817,26.136,26.136,0,0,0,5.24-3.381,12.549,12.549,0,0,0,3.1-3.55,9.067,9.067,0,0,0,1.24-6.086,5.908,5.908,0,0,0-1.127-2.648,6.049,6.049,0,0,0-2.423-1.8,8.406,8.406,0,0,0-2.986-.676,11.561,11.561,0,0,0-2.93.113,9.566,9.566,0,0,0-2.761.845,9.123,9.123,0,0,0-2.761,2.141,12.691,12.691,0,0,0-2.986,6.2h5.071a7.079,7.079,0,0,1,.394-1.634,4.888,4.888,0,0,1,1.409-2.254,4.618,4.618,0,0,1,2.367-.958,2.989,2.989,0,0,1,1.8.056,2.687,2.687,0,0,1,1.3,1.3,3.355,3.355,0,0,1,.338,1.69,4.959,4.959,0,0,1-.676,2.31,8.257,8.257,0,0,1-2.367,2.592,48,48,0,0,1-4.564,2.986,30.854,30.854,0,0,0-3.832,2.7,14.151,14.151,0,0,0-3.663,4.17,11.464,11.464,0,0,0-1.271,4.113h17.725l1.071-4.621H1506.8C1506.978,440.809,1507.246,440.53,1507.588,440.211Z" transform="translate(-1305.29 -413.21)" fill="#fff"/>
    </g>
  </g>
</svg>
