<svg xmlns="http://www.w3.org/2000/svg" width="290" height="93.5" viewBox="0 0 290 93.5">
  <g id="III_Step_img" transform="translate(0.5 0.5)">
    <text id="認証キー生成" transform="translate(256 90)" fill="#5a5757" font-size="11" font-family="YuGothicUI-Regular, Yu Gothic UI" style="isolation: isolate"><tspan x="-29.662" y="0">認証キー生成</tspan></text>
    <text id="入力_申請" data-name="入力・申請" transform="translate(145 90)" fill="#5a5757" font-size="11" font-family="YuGothicUI-Regular, Yu Gothic UI" style="isolation: isolate"><tspan x="-24.75" y="0">入力・申請</tspan></text>
    <text id="パスワード設定" transform="translate(34 90)" fill="#6f6f6f" font-size="11" font-family="YuGothicUI-Regular, Yu Gothic UI" style="isolation: isolate"><tspan x="-31.131" y="0">パスワード設定</tspan></text>
    <g id="STEP_3" transform="translate(218.337 0.002)">
      <g id="Group_7136" data-name="Group 7136" transform="translate(0 0)">
        <circle id="Ellipse_1801" data-name="Ellipse 1801" cx="35.5" cy="35.5" r="35.5" transform="translate(-0.338 -0.002)" fill="#fff" stroke="#f5d22f" stroke-miterlimit="10" stroke-width="1"/>
        <path id="Path_10835" data-name="Path 10835" d="M1189.827,430.845a35.1,35.1,0,0,0-33.03,23.219h66.061A35.1,35.1,0,0,0,1189.827,430.845Z" transform="translate(-1154.438 -430.845)" fill="#f5d22f" stroke="#f5d22f" stroke-miterlimit="10" stroke-width="1"/>
        <text id="STEP" transform="translate(18.993 17.902)" fill="#fff" font-size="12" font-family="BebasNeue-Regular, Bebas Neue"><tspan x="0" y="0">STEP</tspan></text>
        <path id="_3" data-name="3" d="M1537.4,423.535a2.314,2.314,0,0,0-.412-.907,2.434,2.434,0,0,0-.88-.715,3.3,3.3,0,0,0-1.21-.33,5.054,5.054,0,0,0-1.622.055,4.7,4.7,0,0,0-1.815.8,4.608,4.608,0,0,0-1.677,2.831h2.089a2.234,2.234,0,0,1,.275-.852,1.97,1.97,0,0,1,.935-.88,1.914,1.914,0,0,1,.907-.137,1.139,1.139,0,0,1,.55.137,1.046,1.046,0,0,1,.385.412,1.565,1.565,0,0,1,.055,1.21,1.788,1.788,0,0,1-.632.907,2.087,2.087,0,0,1-.825.33,4.022,4.022,0,0,1-1.155.11l-.357,1.622h.165c.207,0,.51,0,.742.027a1.79,1.79,0,0,1,.825.22,1.2,1.2,0,0,1,.467.495,1.321,1.321,0,0,1,.082.77,2.2,2.2,0,0,1-1.512,1.924,1.838,1.838,0,0,1-.687.137,1.35,1.35,0,0,1-.825-.22,1.368,1.368,0,0,1-.495-.935,1.739,1.739,0,0,1,.083-.852l-2.254-.028a4.089,4.089,0,0,0-.083,1.21,2.857,2.857,0,0,0,.577,1.732,2.766,2.766,0,0,0,1.7.88,6.077,6.077,0,0,0,1.375.027,6.394,6.394,0,0,0,.742-.082,4.423,4.423,0,0,0,1.7-.6,4.145,4.145,0,0,0,1.127-1.072,4.916,4.916,0,0,0,.77-1.594,3.435,3.435,0,0,0,.193-.962,2.412,2.412,0,0,0-.33-1.4,2.119,2.119,0,0,0-.44-.495,1.4,1.4,0,0,0-.45-.269c.089-.039.185-.086.286-.143a3.271,3.271,0,0,0,.99-.852,3.209,3.209,0,0,0,.55-1.237A2.642,2.642,0,0,0,1537.4,423.535Z" transform="translate(-1487.952 -414.21)" fill="#fff"/>
      </g>
      <g id="icon" transform="translate(14.151 33.606)">
        <path id="Path_10882" data-name="Path 10882" d="M5949.42,3134h-10.064v4.209h-3.11V3134h-10.063v4.117h-3.111V3134h-10.064v10.064h10.064v-4.3h3.111v4.3h10.063v-4.209h3.11v4.209h6.13v5.763h-2.837v-4.208h-10.064v4.208h-1.64a5.354,5.354,0,0,0-5.3-4.694,5.3,5.3,0,0,0-5.2,4.111H5907.81a1.372,1.372,0,0,0,0,2.66h1.427v2.574h1.716v-1.973h1.887v1.973h1.629V3151.9h6.014a5.2,5.2,0,0,0,5.163,3.943,5.33,5.33,0,0,0,5.25-4.374h1.688v4.209h10.064v-4.209h4.484v-7.41h2.287Zm-27.813,8.6h-7.136v-7.136h7.136v2.653h-1.189v1.647h1.189Zm13.174,0h-7.136v-2.836h.732v-1.647h-.732v-2.653h7.136v2.745h-.915v1.646h.915Zm-7.6,9.945a1.966,1.966,0,0,1-1.964-1.885c0-.027,0-.054,0-.082a1.966,1.966,0,0,1,3.782-.751h-1.9v1.647h1.825A1.959,1.959,0,0,1,5927.177,3152.545Zm14.009,1.674h-7.137v-2.745h1.1v-1.647h-1.1v-2.745h7.137v2.745h-.824v1.647h.824Zm6.77-11.619h-7.136v-2.745h1.829v-1.646h-1.829v-2.745h7.136Z" transform="translate(-5906.776 -3134)" fill="#f5d22f"/>
        <g id="Group_7163" data-name="Group 7163">
          <rect id="Rectangle_5687" data-name="Rectangle 5687" width="1.384" height="1.647" transform="translate(7.551 4.116)" fill="#f5d22f"/>
          <rect id="Rectangle_5686" data-name="Rectangle 5686" width="1.384" height="1.647" transform="translate(4.014 4.116)" fill="#f5d22f"/>
          <rect id="Rectangle_5685" data-name="Rectangle 5685" width="1.384" height="1.647" transform="translate(1.247 4.116)" fill="#f5d22f"/>
        </g>
      </g>
    </g>
    <path id="_" data-name="→" d="M957.809,53.584h0a1.24,1.24,0,0,0,0,1.755l5.031,5.031h-14.7a1.242,1.242,0,0,0-1.241,1.241h0a1.241,1.241,0,0,0,1.241,1.241h14.211l-5.183,5.031a1.241,1.241,0,0,0-.026,1.755h0a1.242,1.242,0,0,0,1.755.026l7.983-7.749a.71.71,0,0,0,.008-1.011l-7.323-7.322A1.241,1.241,0,0,0,957.809,53.584Z" transform="translate(-757.883 -24.92)" fill="#f5d22f"/>
    <g id="STEP_2" transform="translate(109.168 0.002)">
      <g id="Group_7135" data-name="Group 7135" transform="translate(0 0)">
        <path id="Path_11199" data-name="Path 11199" d="M35.5,0A35.5,35.5,0,1,1,0,35.5,35.5,35.5,0,0,1,35.5,0Z" transform="translate(-0.169 -0.002)" fill="#fff" stroke="#f5d22f" stroke-width="1"/>
        <path id="Path_10835-2" data-name="Path 10835" d="M1189.827,430.845a35.1,35.1,0,0,0-33.03,23.219h66.061A35.1,35.1,0,0,0,1189.827,430.845Z" transform="translate(-1154.438 -430.845)" fill="#f5d22f" stroke="#f5d22f" stroke-miterlimit="10" stroke-width="1"/>
        <text id="STEP-2" data-name="STEP" transform="translate(19.162 17.902)" fill="#fff" font-size="12" font-family="BebasNeue-Regular, Bebas Neue"><tspan x="0" y="0">STEP</tspan></text>
        <path id="Path_10836" data-name="Path 10836" d="M1503.234,428.746a7.976,7.976,0,0,1,1.868-1.28,11.876,11.876,0,0,0,2.38-1.535,5.7,5.7,0,0,0,1.407-1.612,4.12,4.12,0,0,0,.563-2.764,2.688,2.688,0,0,0-.512-1.2,2.748,2.748,0,0,0-1.1-.819,3.819,3.819,0,0,0-1.356-.307,5.251,5.251,0,0,0-1.331.051,4.344,4.344,0,0,0-1.254.384,4.148,4.148,0,0,0-1.254.973,5.764,5.764,0,0,0-1.356,2.815h2.3a3.2,3.2,0,0,1,.179-.742,2.221,2.221,0,0,1,.64-1.024,2.1,2.1,0,0,1,1.075-.435,1.357,1.357,0,0,1,.819.026,1.221,1.221,0,0,1,.589.589,1.52,1.52,0,0,1,.153.768,2.249,2.249,0,0,1-.307,1.049,3.753,3.753,0,0,1-1.075,1.177,21.844,21.844,0,0,1-2.073,1.356,14.039,14.039,0,0,0-1.74,1.228,6.429,6.429,0,0,0-1.663,1.894,5.206,5.206,0,0,0-.578,1.868h8.05l.486-2.1h-5.272C1502.957,429.017,1503.079,428.89,1503.234,428.746Z" transform="translate(-1459.606 -411.872)" fill="#fff"/>
      </g>
      <g id="icon-2" data-name="icon" transform="translate(17.688 33.468)">
        <path id="Path_10862" data-name="Path 10862" d="M990.737,177.268q-6.838,0-13.676,0a3.76,3.76,0,0,1-3.745-2.912,4.2,4.2,0,0,1-.1-.979q-.009-7.642,0-15.284a3.772,3.772,0,0,1,3.821-3.89q3.958-.007,7.915,0h19.459a3.759,3.759,0,0,1,3.755,2.9,4.323,4.323,0,0,1,.1,1c.006,5.086-.019,10.172.016,15.257a3.833,3.833,0,0,1-3.846,3.9Q997.587,177.265,990.737,177.268Zm-.008-2.121V156.32c-.1,0-.188-.012-.273-.012q-6.719,0-13.436,0a1.67,1.67,0,0,0-1.742,1.784q0,7.642,0,15.283a1.669,1.669,0,0,0,1.744,1.782q6.716.007,13.435,0C990.542,175.16,990.628,175.152,990.73,175.146Zm7.732-8.467c1.691,0,3.38,0,5.071,0a.947.947,0,1,0,.012-1.888q-5.069,0-10.14,0a1.234,1.234,0,0,0-.595.167.92.92,0,0,0-.379,1.048.956.956,0,0,0,.967.67Q995.929,166.684,998.462,166.68Zm.019-3.5c1.682,0,3.364.009,5.046-.009a1.339,1.339,0,0,0,.683-.207.89.89,0,0,0,.3-1.026.938.938,0,0,0-.938-.636q-3.955,0-7.912,0c-.771,0-1.543,0-2.314,0a.938.938,0,1,0,.033,1.875C995.081,163.181,996.781,163.178,998.481,163.178Zm-2.452,5.113c-.884,0-1.77,0-2.655,0a.934.934,0,0,0-.906,1.293.888.888,0,0,0,.887.585q2.642,0,5.283,0a.947.947,0,0,0,1.033-.958.959.959,0,0,0-1.04-.926C997.764,168.308,996.9,168.29,996.029,168.29Z" transform="translate(-973.214 -154.199)" fill="#f5d22f"/>
        <path id="Path_10863" data-name="Path 10863" d="M982.186,168.058a12.025,12.025,0,0,1-4.315-.641,6.154,6.154,0,0,1-1.212-.713.813.813,0,0,1-.3-.723,3.992,3.992,0,0,1,3.175-3.815.485.485,0,0,1,.312.06,3.869,3.869,0,0,0,4.288-.026.4.4,0,0,1,.269-.037,4.015,4.015,0,0,1,3.186,3.753,1.152,1.152,0,0,1-.594,1.04,5.633,5.633,0,0,1-2.095.8,11.342,11.342,0,0,1-1.216.2C983.106,168.016,982.527,168.037,982.186,168.058Z" transform="translate(-971.74 -150.213)" fill="#f5d22f"/>
        <path id="Path_10864" data-name="Path 10864" d="M984.132,160.78a3.507,3.507,0,0,1-2.29,3.269,2.456,2.456,0,0,1-2.44-.57,3.523,3.523,0,0,1-1.084-3.777,3,3,0,0,1,5.814,1.078Z" transform="translate(-970.906 -152.419)" fill="#f5d22f"/>
      </g>
    </g>
    <path id="_2" data-name="→" d="M957.809,53.584h0a1.24,1.24,0,0,0,0,1.755l5.031,5.031h-14.7a1.242,1.242,0,0,0-1.241,1.241h0a1.241,1.241,0,0,0,1.241,1.241h14.211l-5.183,5.031a1.241,1.241,0,0,0-.026,1.755h0a1.242,1.242,0,0,0,1.755.026l7.983-7.749a.71.71,0,0,0,.008-1.011l-7.323-7.322A1.241,1.241,0,0,0,957.809,53.584Z" transform="translate(-867.899 -24.92)" fill="#f5d22f"/>
    <g id="STEP_1" transform="translate(0 0)">
      <g id="Group_7134" data-name="Group 7134" transform="translate(0 0)">
        <circle id="Ellipse_1801-2" data-name="Ellipse 1801" cx="35.5" cy="35.5" r="35.5" transform="translate(0)" fill="#fff" stroke="#efdb37" stroke-miterlimit="10" stroke-width="1"/>
        <path id="Path_10835-3" data-name="Path 10835" d="M1189.827,430.845a35.1,35.1,0,0,0-33.031,23.219h66.062A35.1,35.1,0,0,0,1189.827,430.845Z" transform="translate(-1154.735 -430.845)" fill="#f5d22f" stroke="#f5d22f" stroke-miterlimit="10" stroke-width="1"/>
        <text id="STEP-3" data-name="STEP" transform="translate(19.331 17.905)" fill="#fff" font-size="12" font-family="BebasNeue-Regular, Bebas Neue"><tspan x="0" y="0">STEP</tspan></text>
        <path id="パス_6524" data-name="パス 6524" d="M1289.631,459.082h.261a5.184,5.184,0,0,0,1.429-.166,2.761,2.761,0,0,0,1.12-.619,2.7,2.7,0,0,0,.739-1.192h1.93l-2.43,11.388H1290.3l1.692-7.863-2.668-.024Z" transform="translate(-1246.898 -449.162)" fill="#fff"/>
      </g>
      <g id="icon-3" data-name="icon" transform="translate(15.616 39.798)">
        <rect id="Rectangle_4764" data-name="Rectangle 4764" width="40.371" height="15.615" rx="1.687" transform="translate(0 0)" fill="#f5d22f"/>
        <path id="Path_6025" data-name="Path 6025" d="M47.934,214.867H45.366l1.817-1.817a.422.422,0,0,0-.6-.6l-1.817,1.815V211.7a.422.422,0,1,0-.844,0v2.568l-1.815-1.815a.422.422,0,0,0-.6.6l1.815,1.817H40.759a.422.422,0,0,0,0,.844h2.568l-1.815,1.817a.422.422,0,0,0,.6.6l1.815-1.817v2.568a.422.422,0,1,0,.844,0v-2.568l1.817,1.817a.422.422,0,0,0,.6-.6l-1.817-1.817h2.568a.422.422,0,1,0,0-.844Z" transform="translate(-24.191 -207.798)" fill="#fff"/>
        <path id="Path_6026" data-name="Path 6026" d="M40.588,214.867H38.02l1.815-1.817a.421.421,0,0,0-.6-.6l-1.817,1.815V211.7a.422.422,0,1,0-.844,0v2.568l-1.817-1.815a.422.422,0,0,0-.6.6l1.817,1.817H33.414a.422.422,0,1,0,0,.844h2.568l-1.817,1.817a.422.422,0,0,0,.6.6l1.817-1.817v2.568a.422.422,0,1,0,.844,0v-2.568l1.817,1.817a.422.422,0,0,0,.6-.6l-1.815-1.817h2.568a.422.422,0,1,0,0-.844Z" transform="translate(-28.391 -207.798)" fill="#fff"/>
        <rect id="Rectangle_4765" data-name="Rectangle 4765" width="8.019" height="0.844" rx="0.269" transform="translate(28.279 11.289)" fill="#fff"/>
      </g>
      <text id="Password" transform="translate(18 36)" fill="#f5d22f" font-size="7" font-family="SegoeUI, Segoe UI" style="isolation: isolate"><tspan x="0" y="0">Password</tspan></text>
    </g>
  </g>
</svg>
