<svg id="Group_3154" data-name="Group 3154" xmlns="http://www.w3.org/2000/svg" width="32.891" height="33.346" viewBox="0 0 32.891 33.346">
  <ellipse id="Ellipse_1244" data-name="Ellipse 1244" cx="16.445" cy="16.673" rx="16.445" ry="16.673" fill="#f5d22f"/>
  <path id="Path_3952" data-name="Path 3952" d="M1178.441,6837.875a2.134,2.134,0,0,1,1.124-1.446l3.728,5.164c-.549.5-.339,1.141-.017,1.671.84,1.382,1.73,2.734,2.656,4.06a21.79,21.79,0,0,0,1.572,1.842,2.546,2.546,0,0,0,.4.345,1.069,1.069,0,0,0,1.3.206l3.717,5.151a2.07,2.07,0,0,1-1.628.683l-.969-.151c-.5-.181-1.005-.334-1.489-.546a16.781,16.781,0,0,1-6.454-5.181,18.332,18.332,0,0,1-3.915-8.479c-.128-.794-.115-1.611-.167-2.417Z" transform="translate(-1170.081 -6828.713)" fill="#fff"/>
  <path id="Path_3953" data-name="Path 3953" d="M1185.224,6840.379l-3.75-5.166a1.582,1.582,0,0,1,2.671.123q.932,1.28,1.854,2.567a1.348,1.348,0,0,1-.339,2.093C1185.507,6840.111,1185.372,6840.249,1185.224,6840.379Z" transform="translate(-1171.224 -6828.031)" fill="#fff"/>
  <path id="Path_3954" data-name="Path 3954" d="M1200.292,6861.089l-3.732-5.146c.006-.006.034-.037.065-.064,1.209-1.062,1.975-.752,2.708.378.455.7.975,1.358,1.465,2.037C1201.649,6859.473,1201.489,6860.324,1200.292,6861.089Z" transform="translate(-1176.667 -6835.493)" fill="#fff"/>
</svg>
