<svg xmlns="http://www.w3.org/2000/svg" width="127.48" height="24.372" viewBox="0 0 127.48 24.372">
  <g id="Virtual_Wall_logo" data-name="Virtual Wall_logo" transform="translate(-73.335 -363.548)">
    <g id="text10" transform="translate(100.114 369.098)">
      <path id="path344" d="M111.868,304.44l-5.519,13.272h-1.864L98.94,304.44h1.772l4.764,11.49,4.647-11.49Z" transform="translate(-98.94 -304.44)" fill="#8e8e8f"/>
      <path id="path346" d="M113.933,304.44v1.391h-1.682V304.44Zm0,3.527v9.745h-1.682v-9.745Z" transform="translate(-97.15 -304.44)" fill="#8e8e8f"/>
      <path id="path348" d="M116.65,317.294v-9.745h1.137l.3,1.243a4.132,4.132,0,0,1,3.019-1.243v1.429a3.487,3.487,0,0,0-2.774,1.234v7.081Z" transform="translate(-96.559 -304.022)" fill="#8e8e8f"/>
      <path id="path350" d="M122.573,306.157h1.055l.364,1.579h2.218v1.391h-1.954v5.6c0,.911.382,1.365,1.154,1.365h.8v1.392h-1.237q-2.4,0-2.4-2.626Z" transform="translate(-95.762 -304.209)" fill="#8e8e8f"/>
      <path id="path352" d="M136.524,307.549v9.745H135.37l-.293-1.243a5.963,5.963,0,0,1-3.49,1.243q-3.291,0-3.292-3.629v-6.116h1.682v6.144a1.892,1.892,0,0,0,2.109,2.171,3.986,3.986,0,0,0,2.756-1.234v-7.081Z" transform="translate(-94.993 -304.022)" fill="#8e8e8f"/>
      <path id="path354" d="M138.064,314.259q0-3,3.873-3a14.67,14.67,0,0,1,2.492.186v-.918q0-1.588-2.574-1.588a10.455,10.455,0,0,0-3.018.465v-1.393a10.489,10.489,0,0,1,3.018-.463q4.256,0,4.255,3.118v6.628h-.854l-.674-.687a5.945,5.945,0,0,1-2.927.688Q138.065,317.294,138.064,314.259Zm3.873-1.605q-2.19,0-2.191,1.578,0,1.669,1.909,1.67a4.558,4.558,0,0,0,2.774-.761v-2.3A14.116,14.116,0,0,0,141.937,312.654Z" transform="translate(-93.679 -304.022)" fill="#8e8e8f"/>
      <path id="path356" d="M149.756,304.44v13.272h-1.682V304.44Z" transform="translate(-92.333 -304.44)" fill="#8e8e8f"/>
      <path id="path358" d="M155.873,304.44H157.5l1.828,11.546L163,304.44h1.684l3.935,11.546,2.065-11.546h1.554l-2.445,13.272H167.5l-3.673-11.119-3.554,11.119h-2.264Z" transform="translate(-91.284 -304.44)" fill="#474645"/>
      <path id="path360" d="M171.812,314.259q0-3,3.874-3a14.66,14.66,0,0,1,2.49.186v-.918q0-1.588-2.573-1.588a10.455,10.455,0,0,0-3.018.465v-1.393a10.489,10.489,0,0,1,3.018-.463q4.254,0,4.255,3.118v6.628H179l-.673-.687a5.955,5.955,0,0,1-2.928.688Q171.811,317.294,171.812,314.259Zm3.874-1.605q-2.192,0-2.192,1.578,0,1.669,1.909,1.67a4.552,4.552,0,0,0,2.773-.761v-2.3A14.088,14.088,0,0,0,175.686,312.654Z" transform="translate(-89.141 -304.022)" fill="#474645"/>
      <path id="path362" d="M183.5,304.44v13.272h-1.682V304.44Z" transform="translate(-87.795 -304.44)" fill="#474645"/>
      <path id="path364" d="M187.9,304.44v13.272h-1.681V304.44Z" transform="translate(-87.203 -304.44)" fill="#474645"/>
    </g>
    <g id="g991" transform="translate(73.335 363.548)">
      <path id="path987" d="M75.335,301.6v19.709l6.878-6.066v-7.581l-1.591-1.4v8.4l-3.7,3.264V303Z" transform="translate(-75.335 -299.272)" fill="#8e8e8f"/>
      <path id="path989" d="M94.188,299.548l-1.592,1.4v19.592l-3.7-3.266V304.211l-1.586,1.4,0,10.264-1.054-.931v-8.4l-1.592,1.4v7.581l9.528,8.4Z" transform="translate(-74.081 -299.548)" fill="#474645"/>
    </g>
  </g>
</svg>
